# Blender 4.5.1 LTS
# www.blender.org
mtllib Floor3.mtl
o Floor3
v 2541.652588 410.454987 -5428.979004
v 2541.652588 416.403595 -5428.979004
v 2541.652588 410.454987 -5449.528809
v 2541.652588 416.403595 -5449.528809
v 2440.844482 410.454987 -5428.979004
v 2440.844482 416.403595 -5428.979004
v 2440.844482 410.454987 -5449.528809
v 2440.844482 416.403595 -5449.528809
v 2458.073242 416.403595 -5449.528809
v 2523.615723 416.403595 -5449.528809
v 2523.615723 410.454987 -5449.528809
v 2458.073242 410.454987 -5449.528809
v 2523.615723 416.403595 -5428.979004
v 2458.073242 416.403595 -5428.979004
v 2523.615723 410.454987 -5428.979004
v 2458.073242 410.454987 -5428.979004
v 2440.844482 412.495178 -5449.528809
v 2440.844482 410.454987 -5435.829102
v 2440.844482 410.454987 -5442.678711
v 2440.844482 412.495178 -5428.979004
v 2440.844482 412.495178 -5442.678711
v 2440.844482 412.495178 -5435.829102
v 2415.384033 410.454987 -5442.678711
v 2415.384033 410.454987 -5449.528809
v 2415.384033 412.495178 -5449.528809
v 2415.384033 410.454987 -5428.979004
v 2415.384033 410.454987 -5435.829102
v 2415.384033 412.495178 -5428.979004
v 2415.384033 412.495178 -5435.829102
v 2415.384033 412.495178 -5442.678711
v 2432.357666 412.495178 -5442.678711
v 2423.870850 412.495178 -5442.678711
v 2432.357666 412.495178 -5435.829102
v 2423.870850 412.495178 -5435.829102
v 2432.278076 418.635345 -5442.678711
v 2423.950439 416.999634 -5442.678711
v 2432.278076 418.635345 -5435.829102
v 2423.950439 416.999634 -5435.829102
v 2440.786377 410.540985 -5428.979004
v 2440.786377 410.540985 -5449.528809
v 2541.594482 410.454987 -5428.979004
v 2541.594482 416.403595 -5428.979004
v 2541.594482 410.454987 -5449.528809
v 2541.594482 416.403595 -5449.528809
v 2524.365723 416.403595 -5449.528809
v 2524.365723 416.403595 -5428.979004
v 2541.594482 412.495178 -5449.528809
v 2541.594482 410.454987 -5435.829102
v 2541.594482 410.454987 -5442.678711
v 2541.594482 412.495178 -5428.979004
v 2541.594482 412.495178 -5442.678711
v 2541.594482 412.495178 -5435.829102
v 2567.054932 410.454987 -5442.678711
v 2567.054932 410.454987 -5449.528809
v 2567.054932 412.495178 -5449.528809
v 2567.054932 410.454987 -5428.979004
v 2567.054932 410.454987 -5435.829102
v 2567.054932 412.495178 -5428.979004
v 2567.054932 412.495178 -5435.829102
v 2567.054932 412.495178 -5442.678711
v 2550.081299 412.495178 -5442.678711
v 2558.568115 412.495178 -5442.678711
v 2550.081299 412.495178 -5435.829102
v 2558.568115 412.495178 -5435.829102
v 2550.160889 418.635345 -5442.678711
v 2558.488525 416.999634 -5442.678711
v 2550.160889 418.635345 -5435.829102
v 2558.488525 416.999634 -5435.829102
vn 1.0000 -0.0000 -0.0000
vn -0.0000 -0.0000 -1.0000
vn -0.0000 -0.0000 1.0000
vn -0.0000 -1.0000 -0.0000
vn -0.0000 1.0000 -0.0000
vn -1.0000 -0.0000 -0.0000
vn -0.9998 0.0177 -0.0000
vn 0.9999 0.0130 -0.0000
vn -0.1927 0.9813 -0.0000
vn 0.9998 0.0177 -0.0000
vn -0.9999 0.0130 -0.0000
vn 0.1927 0.9813 -0.0000
vt 0.375000 0.000000
vt 0.625000 0.000000
vt 0.625000 0.250000
vt 0.375000 0.250000
vt 0.625000 0.500000
vt 0.458333 0.500000
vt 0.375000 0.500000
vt 0.375000 0.457273
vt 0.625000 0.457273
vt 0.625000 0.294731
vt 0.375000 0.294731
vt 0.625000 1.000000
vt 0.375000 1.000000
vt 0.375000 0.955269
vt 0.625000 0.955269
vt 0.375000 0.750000
vt 0.458333 0.750000
vt 0.625000 0.750000
vt 0.625000 0.792727
vt 0.375000 0.792727
vt 0.332273 0.500000
vt 0.375000 0.583333
vt 0.375000 0.666667
vt 0.332273 0.750000
vt 0.125000 0.750000
vt 0.125000 0.500000
vt 0.169731 0.500000
vt 0.169731 0.750000
vt 0.875000 0.500000
vt 0.875000 0.750000
vt 0.830269 0.750000
vt 0.830269 0.500000
vt 0.667727 0.750000
vt 0.667727 0.500000
vt 0.435256 0.108103
vt 0.435256 0.185873
vt 0.517258 0.185873
vt 0.517258 0.108103
vt 0.435256 0.641897
vt 0.517258 0.641897
vt 0.517258 0.564127
vt 0.435256 0.564127
vt 0.458333 0.583333
vt 0.458333 0.666667
s 0
f 1/1/1 3/4/1 4/3/1 2/2/1
f 8/5/2 9/9/2 12/8/2 7/7/2 17/6/2
f 3/4/2 11/11/2 10/10/2 4/3/2
f 2/12/3 13/15/3 15/14/3 1/13/3
f 5/16/3 16/20/3 14/19/3 6/18/3 20/17/3
f 12/21/4 16/24/4 5/16/4 18/23/4 19/22/4 7/7/4
f 1/25/4 15/28/4 11/27/4 3/26/4
f 4/29/5 10/32/5 13/31/5 2/30/5
f 14/33/5 9/34/5 8/5/5 6/18/5
f 14/35/1 16/38/1 12/37/1 9/36/1
f 13/39/6 10/42/6 11/41/6 15/40/6
f 17/6/5 25/6/5 30/43/5 32/43/5 31/43/5 21/43/5
f 7/7/2 24/7/2 25/6/2 17/6/2
f 5/16/4 26/16/4 27/23/4 18/23/4
f 34/44/7 38/44/7 36/43/7 32/43/7
f 27/23/6 26/16/6 28/17/6 29/44/6
f 24/7/6 23/22/6 30/43/6 25/6/6
f 23/22/6 27/23/6 29/44/6 30/43/6
f 19/22/4 23/22/4 24/7/4 7/7/4
f 18/23/4 27/23/4 23/22/4 19/22/4
f 22/44/5 33/44/5 34/44/5 29/44/5 28/17/5 20/17/5
f 20/17/3 28/17/3 26/16/3 5/16/3
f 21/43/5 31/43/5 33/44/5 22/44/5
f 33/44/3 37/44/3 38/44/3 34/44/3
f 6/18/6 8/5/6 17/6/6 21/43/6 22/44/6 20/17/6
f 32/43/2 36/43/2 35/43/2 31/43/2
f 31/43/8 35/43/8 37/44/8 33/44/8
f 35/43/9 36/43/9 38/44/9 37/44/9
f 32/43/5 30/43/5 29/44/5 34/44/5
f 47/6/5 51/43/5 61/43/5 62/43/5 60/43/5 55/6/5
f 43/7/2 47/6/2 55/6/2 54/7/2
f 41/16/4 48/23/4 57/23/4 56/16/4
f 64/44/10 62/43/10 66/43/10 68/44/10
f 57/23/1 59/44/1 58/17/1 56/16/1
f 54/7/1 55/6/1 60/43/1 53/22/1
f 53/22/1 60/43/1 59/44/1 57/23/1
f 49/22/4 43/7/4 54/7/4 53/22/4
f 48/23/4 49/22/4 53/22/4 57/23/4
f 52/44/5 50/17/5 58/17/5 59/44/5 64/44/5 63/44/5
f 50/17/3 41/16/3 56/16/3 58/17/3
f 51/43/5 52/44/5 63/44/5 61/43/5
f 63/44/3 64/44/3 68/44/3 67/44/3
f 62/43/2 61/43/2 65/43/2 66/43/2
f 61/43/11 63/44/11 67/44/11 65/43/11
f 65/43/12 67/44/12 68/44/12 66/43/12
f 62/43/5 64/44/5 59/44/5 60/43/5
l 39 40
l 44 45
l 42 46
