# Blender 4.5.1 LTS
# www.blender.org
mtllib Floor2Roof.mtl
o Floor2Roof
v 2405.641357 410.455200 -5428.946289
v 2608.364258 411.334534 -5430.209961
v 2608.364258 411.334534 -5445.871582
v 2405.641357 410.455200 -5449.495605
v 2592.671387 411.334534 -5430.209961
v 2405.641357 410.455200 -5448.211426
v 2592.671387 411.334534 -5445.871582
v 2388.805664 410.455200 -5428.946289
v 2388.805664 410.455200 -5448.211426
v 2591.727051 411.334534 -5430.210449
v 2388.805664 410.455200 -5446.926758
v 2591.727051 411.334534 -5447.120117
v 2576.034424 411.334534 -5430.210449
v 2576.034424 411.334534 -5447.120117
v 2423.301270 411.334595 -5448.413086
v 2438.993896 411.334595 -5448.413086
v 2439.946533 411.334564 -5448.413086
v 2371.216064 410.455200 -5428.946289
v 2371.216064 410.455200 -5446.926758
v 2371.216064 418.816864 -5446.926758
v 2371.188232 410.455200 -5428.946289
v 2371.188232 410.455200 -5446.926758
v 2371.188232 418.816864 -5446.926758
v 2575.824951 410.454956 -5428.946289
v 2575.824951 410.454956 -5449.495605
v 2575.824951 410.454956 -5448.211426
v 2592.660645 410.455200 -5428.946289
v 2592.660645 418.816864 -5428.946289
v 2592.660645 410.455200 -5448.211426
v 2592.660645 410.455200 -5446.926758
v 2610.250244 410.455200 -5428.946289
v 2610.250244 418.816864 -5428.946289
v 2610.250244 410.455200 -5446.926758
v 2610.250244 418.816864 -5446.926758
v 2610.278076 410.455200 -5428.946289
v 2610.278076 418.816864 -5428.946289
v 2610.278076 410.455200 -5446.926758
v 2610.278076 418.816864 -5446.926758
v 2458.068848 410.455200 -5449.495605
v 2458.068848 410.455200 -5428.946289
v 2523.611328 410.454956 -5449.495605
v 2523.611328 410.454956 -5428.946289
v 2591.727051 418.816864 -5447.120117
v 2591.727051 418.816864 -5446.998047
v 2575.165771 418.816864 -5448.413574
v 2575.165771 418.816864 -5448.227539
v 2405.641357 418.816864 -5430.210449
v 2405.871826 418.816864 -5430.210449
v 2405.641357 409.139374 -5449.495605
v 2458.068848 409.139374 -5449.495605
v 2388.805664 409.139374 -5428.946289
v 2388.805664 409.139374 -5446.926758
v 2388.805664 409.139374 -5448.211426
v 2405.641357 409.139374 -5448.211426
v 2405.641357 409.139374 -5428.946289
v 2371.216064 409.139374 -5428.946289
v 2371.188232 409.139374 -5428.946289
v 2371.216064 409.139374 -5446.926758
v 2371.188232 409.139374 -5446.926758
v 2458.068848 409.139374 -5428.946289
v 2575.824951 409.139374 -5449.495605
v 2523.611328 409.139374 -5449.495605
v 2592.660645 409.139374 -5448.211426
v 2592.660645 409.139374 -5446.926758
v 2592.660645 409.139374 -5428.946289
v 2575.824951 409.139374 -5428.946289
v 2575.824951 409.139374 -5448.211426
v 2610.250244 409.139374 -5428.946289
v 2610.278076 409.139374 -5428.946289
v 2610.250244 409.139374 -5446.926758
v 2610.278076 409.139374 -5446.926758
v 2523.611328 409.139374 -5428.946289
vn -0.0000 1.0000 -0.0000
vn -0.0000 -1.0000 -0.0000
vn -0.0000 -0.0000 1.0000
vn -1.0000 -0.0000 -0.0000
vn -0.0000 -0.0000 -1.0000
vn 1.0000 -0.0000 -0.0000
vt 0.125000 0.531250
vt 0.125000 0.750000
vt 0.125000 0.515625
vt 0.201812 0.500000
vt 0.125000 0.500000
vt 0.201812 0.750000
vt 0.201498 0.500000
vt 0.201498 0.750000
s 0
f 11/1/1 8/2/1 1/2/1 6/3/1 9/3/1
f 11/1/1 19/1/1 18/2/1 8/2/1
f 22/1/1 21/2/1 18/2/1 19/1/1
f 39/4/1 4/5/1 6/3/1 1/2/1 40/6/1
f 30/1/1 29/3/1 26/3/1 24/2/1 27/2/1
f 30/1/1 27/2/1 31/2/1 33/1/1
f 37/1/1 33/1/1 31/2/1 35/2/1
f 41/7/1 42/8/1 24/2/1 26/3/1 25/5/1
f 52/1/2 53/3/2 54/3/2 55/2/2 51/2/2
f 52/1/2 51/2/2 56/2/2 58/1/2
f 59/1/2 58/1/2 56/2/2 57/2/2
f 50/4/2 60/6/2 55/2/2 54/3/2 49/5/2
f 64/1/2 65/2/2 66/2/2 67/3/2 63/3/2
f 64/1/2 70/1/2 68/2/2 65/2/2
f 71/1/2 69/2/2 68/2/2 70/1/2
f 62/7/2 61/5/2 67/3/2 66/2/2 72/8/2
f 40/6/3 1/2/3 55/2/3 60/6/3
f 18/2/3 21/2/3 57/2/3 56/2/3
f 6/3/4 4/5/4 49/5/4 54/3/4
f 33/1/5 37/1/5 71/1/5 70/1/5
f 8/2/3 18/2/3 56/2/3 51/2/3
f 26/3/5 29/3/5 63/3/5 67/3/5
f 4/5/5 39/4/5 50/4/5 49/5/5
f 19/1/5 11/1/5 52/1/5 58/1/5
f 31/2/3 27/2/3 65/2/3 68/2/3
f 39/4/6 40/6/6 60/6/6 50/4/6
f 37/1/6 35/2/6 69/2/6 71/1/6
f 35/2/3 31/2/3 68/2/3 69/2/3
f 11/1/4 9/3/4 53/3/4 52/1/4
f 41/7/5 25/5/5 61/5/5 62/7/5
f 24/2/3 42/8/3 72/8/3 66/2/3
f 9/3/5 6/3/5 54/3/5 53/3/5
f 29/3/6 30/1/6 64/1/6 63/3/6
f 25/5/6 26/3/6 67/3/6 61/5/6
f 22/1/5 19/1/5 58/1/5 59/1/5
f 30/1/5 33/1/5 70/1/5 64/1/5
f 21/2/4 22/1/4 59/1/4 57/2/4
f 1/2/3 8/2/3 51/2/3 55/2/3
f 27/2/3 24/2/3 66/2/3 65/2/3
f 42/8/4 41/7/4 62/7/4 72/8/4
l 20 23
l 47 48
l 32 36
l 34 38
l 43 44
l 45 46
