# Blender 4.5.1 LTS
# www.blender.org
mtllib Floor1Roof.mtl
o Floor1Roof
v 2405.641357 402.250519 -5428.946289
v 2405.641357 402.250519 -5449.495117
v 2405.641357 402.250519 -5448.210938
v 2388.805664 402.250519 -5428.946289
v 2388.805664 390.985504 -5448.210938
v 2388.805664 390.985504 -5446.926758
v 2388.805664 402.250519 -5446.926758
v 2388.805664 392.393646 -5446.926758
v 2388.805664 393.801758 -5446.926758
v 2309.390137 408.673004 -5446.926758
v 2309.390137 408.673004 -5428.946289
v 2388.805664 391.689575 -5446.926758
v 2388.805664 393.097687 -5446.926758
v 2388.805664 402.250519 -5448.210938
v 2388.805664 392.393646 -5448.210938
v 2388.805664 393.097687 -5448.210938
v 2388.805664 391.689575 -5448.210938
v 2371.216064 402.250519 -5428.946289
v 2371.216064 402.250519 -5446.926758
v 2358.850586 402.250519 -5428.946289
v 2346.484863 402.250519 -5428.946289
v 2358.850586 402.250519 -5446.926758
v 2346.484863 402.250519 -5446.926758
v 2344.010498 402.470184 -5428.946289
v 2342.020020 402.854950 -5428.946289
v 2340.069824 403.474487 -5428.946289
v 2337.997070 404.201141 -5428.946289
v 2336.084717 404.966461 -5428.946289
v 2344.010498 402.470184 -5446.926758
v 2342.020020 402.854950 -5446.926758
v 2340.069824 403.474487 -5446.926758
v 2337.997070 404.201141 -5446.926758
v 2336.084717 404.966461 -5446.926758
v 2315.652832 408.574127 -5428.946289
v 2315.652832 408.574127 -5446.926758
v 2318.990234 408.304962 -5428.946289
v 2318.990234 408.304962 -5446.926758
v 2458.068848 402.250519 -5449.495117
v 2458.068848 402.250519 -5428.946289
v 2405.596924 400.728851 -5449.495117
v 2458.024414 400.728851 -5449.495117
v 2405.596924 400.728851 -5448.210938
v 2405.596924 400.728851 -5428.946289
v 2458.024414 400.728851 -5428.946289
v 2388.761230 400.728851 -5428.946289
v 2371.171631 400.728851 -5428.946289
v 2388.761230 400.728851 -5446.926758
v 2371.171631 400.728851 -5446.926758
v 2358.806152 400.728851 -5428.946289
v 2358.806152 400.728851 -5446.926758
v 2346.440430 400.728851 -5446.926758
v 2346.440430 400.728851 -5428.946289
v 2337.952637 402.679474 -5428.946289
v 2336.040283 403.444824 -5428.946289
v 2337.952637 402.679474 -5446.926758
v 2336.040283 403.444824 -5446.926758
v 2318.945557 406.783325 -5446.926758
v 2315.608398 407.052490 -5446.926758
v 2315.608398 407.052490 -5428.946289
v 2318.945557 406.783325 -5428.946289
v 2343.966064 400.948547 -5446.926758
v 2343.966064 400.948547 -5428.946289
v 2341.975586 401.333313 -5446.926758
v 2341.975586 401.333313 -5428.946289
v 2340.025391 401.952820 -5446.926758
v 2340.025391 401.952820 -5428.946289
v 2309.345703 407.151337 -5446.926758
v 2309.345703 407.151337 -5428.946289
v 2388.761230 400.728851 -5448.210938
v 2575.824951 402.250519 -5428.946289
v 2575.824951 402.250519 -5449.495117
v 2575.824951 402.250519 -5448.210938
v 2592.660645 402.250519 -5428.946289
v 2592.660645 390.985504 -5448.210938
v 2592.660645 390.985504 -5446.926758
v 2592.660645 402.250519 -5446.926758
v 2592.660645 392.393646 -5446.926758
v 2592.660645 393.801758 -5446.926758
v 2672.076172 408.673004 -5446.926758
v 2672.076172 408.673004 -5428.946289
v 2592.660645 391.689575 -5446.926758
v 2592.660645 393.097687 -5446.926758
v 2592.660645 402.250519 -5448.210938
v 2592.660645 392.393646 -5448.210938
v 2592.660645 393.097687 -5448.210938
v 2592.660645 391.689575 -5448.210938
v 2610.250244 402.250519 -5428.946289
v 2610.250244 402.250519 -5446.926758
v 2622.615723 402.250519 -5428.946289
v 2634.981445 402.250519 -5428.946289
v 2622.615723 402.250519 -5446.926758
v 2634.981445 402.250519 -5446.926758
v 2637.455811 402.470184 -5428.946289
v 2639.446289 402.854950 -5428.946289
v 2641.396484 403.474487 -5428.946289
v 2643.469238 404.201141 -5428.946289
v 2645.381592 404.966461 -5428.946289
v 2637.455811 402.470184 -5446.926758
v 2639.446289 402.854950 -5446.926758
v 2641.396484 403.474487 -5446.926758
v 2643.469238 404.201141 -5446.926758
v 2645.381592 404.966461 -5446.926758
v 2665.813477 408.574127 -5428.946289
v 2665.813477 408.574127 -5446.926758
v 2662.476074 408.304962 -5428.946289
v 2662.476074 408.304962 -5446.926758
v 2523.397461 402.250519 -5449.495117
v 2523.397461 402.250519 -5428.946289
v 2575.869385 400.728851 -5449.495117
v 2523.441895 400.728851 -5449.495117
v 2575.869385 400.728851 -5448.210938
v 2575.869385 400.728851 -5428.946289
v 2523.441895 400.728851 -5428.946289
v 2592.705078 400.728851 -5428.946289
v 2610.294678 400.728851 -5428.946289
v 2592.705078 400.728851 -5446.926758
v 2610.294678 400.728851 -5446.926758
v 2622.660156 400.728851 -5428.946289
v 2622.660156 400.728851 -5446.926758
v 2635.025879 400.728851 -5446.926758
v 2635.025879 400.728851 -5428.946289
v 2643.513672 402.679474 -5428.946289
v 2645.426025 403.444824 -5428.946289
v 2643.513672 402.679474 -5446.926758
v 2645.426025 403.444824 -5446.926758
v 2662.520752 406.783325 -5446.926758
v 2665.857910 407.052490 -5446.926758
v 2665.857910 407.052490 -5428.946289
v 2662.520752 406.783325 -5428.946289
v 2637.500244 400.948547 -5446.926758
v 2637.500244 400.948547 -5428.946289
v 2639.490723 401.333313 -5446.926758
v 2639.490723 401.333313 -5428.946289
v 2641.440918 401.952820 -5446.926758
v 2641.440918 401.952820 -5428.946289
v 2672.120605 407.151337 -5446.926758
v 2672.120605 407.151337 -5428.946289
v 2592.705078 400.728851 -5448.210938
vn -0.0000 -1.0000 -0.0000
vn -0.3716 -0.9284 -0.0000
vn -0.1739 -0.9848 -0.0000
vn -0.0884 -0.9961 -0.0000
vn -0.1898 -0.9818 -0.0000
vn -0.3028 -0.9531 -0.0000
vn -0.3308 -0.9437 -0.0000
vn -0.0158 -0.9999 -0.0000
vn -0.0000 1.0000 -0.0000
vn 0.3716 0.9284 -0.0000
vn 0.1739 0.9848 -0.0000
vn 0.0884 0.9961 -0.0000
vn 0.1898 0.9818 -0.0000
vn 0.3028 0.9531 -0.0000
vn 0.3308 0.9437 -0.0000
vn 0.0158 0.9999 -0.0000
vn -0.0000 -0.0000 -1.0000
vn -0.0000 -0.0000 1.0000
vn 0.9996 -0.0292 -0.0000
vn -0.9996 0.0292 -0.0000
vn 0.3716 -0.9284 -0.0000
vn 0.1739 -0.9848 -0.0000
vn 0.0884 -0.9961 -0.0000
vn 0.1898 -0.9818 -0.0000
vn 0.3028 -0.9531 -0.0000
vn 0.3308 -0.9437 -0.0000
vn 0.0158 -0.9999 -0.0000
vn -0.3716 0.9284 -0.0000
vn -0.1739 0.9848 -0.0000
vn -0.0884 0.9961 -0.0000
vn -0.1898 0.9818 -0.0000
vn -0.3028 0.9531 -0.0000
vn -0.3308 0.9437 -0.0000
vn -0.0158 0.9999 -0.0000
vn -0.9996 -0.0292 -0.0000
vn 0.9996 0.0292 -0.0000
vt 0.875000 0.500000
vt 0.798189 0.500000
vt 0.798189 0.750000
vt 0.875000 0.750000
vt 0.875000 0.515625
vt 0.875000 0.531250
s 0
f 2/1/1 38/2/1 39/3/1 1/4/1 3/5/1
f 4/4/1 18/4/1 19/6/1 7/6/1
f 22/6/1 20/4/1 21/4/1 23/6/1
f 27/4/2 28/4/2 33/6/2 32/6/2
f 37/6/3 33/6/3 28/4/3 36/4/3 34/4/3 35/6/3
f 23/6/4 21/4/4 24/4/4 29/6/4
f 29/6/5 24/4/5 25/4/5 30/6/5
f 30/6/6 25/4/6 26/4/6 31/6/6
f 31/6/7 26/4/7 27/4/7 32/6/7
f 35/6/8 34/4/8 11/4/8 10/6/8
f 4/4/1 7/6/1 14/5/1 3/5/1 1/4/1
f 18/4/1 20/4/1 22/6/1 19/6/1
f 40/1/9 42/5/9 43/4/9 44/3/9 41/2/9
f 45/4/9 47/6/9 48/6/9 46/4/9
f 50/6/9 51/6/9 52/4/9 49/4/9
f 53/4/10 55/6/10 56/6/10 54/4/10
f 57/6/11 58/6/11 59/4/11 60/4/11 54/4/11 56/6/11
f 51/6/12 61/6/12 62/4/12 52/4/12
f 61/6/13 63/6/13 64/4/13 62/4/13
f 63/6/14 65/6/14 66/4/14 64/4/14
f 65/6/15 55/6/15 53/4/15 66/4/15
f 58/6/16 67/6/16 68/4/16 59/4/16
f 45/4/9 43/4/9 42/5/9 69/5/9 47/6/9
f 46/4/9 48/6/9 50/6/9 49/4/9
f 18/4/17 4/4/17 45/4/17 46/4/17
f 24/4/17 21/4/17 52/4/17 62/4/17
f 29/6/18 30/6/18 63/6/18 61/6/18
f 7/6/18 19/6/18 48/6/18 47/6/18
f 25/4/17 24/4/17 62/4/17 64/4/17
f 19/6/18 22/6/18 50/6/18 48/6/18
f 30/6/18 31/6/18 65/6/18 63/6/18
f 38/2/18 2/1/18 40/1/18 41/2/18
f 2/1/19 3/5/19 42/5/19 40/1/19
f 26/4/17 25/4/17 64/4/17 66/4/17
f 33/6/18 37/6/18 57/6/18 56/6/18
f 22/6/18 23/6/18 51/6/18 50/6/18
f 31/6/18 32/6/18 55/6/18 65/6/18
f 1/4/17 39/3/17 44/3/17 43/4/17
f 37/6/18 35/6/18 58/6/18 57/6/18
f 27/4/17 26/4/17 66/4/17 53/4/17
f 39/3/20 38/2/20 41/2/20 44/3/20
f 4/4/17 1/4/17 43/4/17 45/4/17
f 21/4/17 20/4/17 49/4/17 52/4/17
f 35/6/18 10/6/18 67/6/18 58/6/18
f 34/4/17 36/4/17 60/4/17 59/4/17
f 20/4/17 18/4/17 46/4/17 49/4/17
f 28/4/17 27/4/17 53/4/17 54/4/17
f 10/6/19 11/4/19 68/4/19 67/6/19
f 36/4/17 28/4/17 54/4/17 60/4/17
f 3/5/18 14/5/18 69/5/18 42/5/18
f 11/4/17 34/4/17 59/4/17 68/4/17
f 23/6/18 29/6/18 61/6/18 51/6/18
f 14/5/19 7/6/19 47/6/19 69/5/19
f 32/6/18 33/6/18 56/6/18 55/6/18
f 71/1/1 72/5/1 70/4/1 108/3/1 107/2/1
f 73/4/1 76/6/1 88/6/1 87/4/1
f 91/6/1 92/6/1 90/4/1 89/4/1
f 96/4/21 101/6/21 102/6/21 97/4/21
f 106/6/22 104/6/22 103/4/22 105/4/22 97/4/22 102/6/22
f 92/6/23 98/6/23 93/4/23 90/4/23
f 98/6/24 99/6/24 94/4/24 93/4/24
f 99/6/25 100/6/25 95/4/25 94/4/25
f 100/6/26 101/6/26 96/4/26 95/4/26
f 104/6/27 79/6/27 80/4/27 103/4/27
f 73/4/1 70/4/1 72/5/1 83/5/1 76/6/1
f 87/4/1 88/6/1 91/6/1 89/4/1
f 109/1/9 110/2/9 113/3/9 112/4/9 111/5/9
f 114/4/9 115/4/9 117/6/9 116/6/9
f 119/6/9 118/4/9 121/4/9 120/6/9
f 122/4/28 123/4/28 125/6/28 124/6/28
f 126/6/29 125/6/29 123/4/29 129/4/29 128/4/29 127/6/29
f 120/6/30 121/4/30 131/4/30 130/6/30
f 130/6/31 131/4/31 133/4/31 132/6/31
f 132/6/32 133/4/32 135/4/32 134/6/32
f 134/6/33 135/4/33 122/4/33 124/6/33
f 127/6/34 128/4/34 137/4/34 136/6/34
f 114/4/9 116/6/9 138/5/9 111/5/9 112/4/9
f 115/4/9 118/4/9 119/6/9 117/6/9
f 87/4/17 115/4/17 114/4/17 73/4/17
f 93/4/17 131/4/17 121/4/17 90/4/17
f 98/6/18 130/6/18 132/6/18 99/6/18
f 76/6/18 116/6/18 117/6/18 88/6/18
f 94/4/17 133/4/17 131/4/17 93/4/17
f 88/6/18 117/6/18 119/6/18 91/6/18
f 99/6/18 132/6/18 134/6/18 100/6/18
f 107/2/18 110/2/18 109/1/18 71/1/18
f 71/1/35 109/1/35 111/5/35 72/5/35
f 95/4/17 135/4/17 133/4/17 94/4/17
f 102/6/18 125/6/18 126/6/18 106/6/18
f 91/6/18 119/6/18 120/6/18 92/6/18
f 100/6/18 134/6/18 124/6/18 101/6/18
f 70/4/17 112/4/17 113/3/17 108/3/17
f 106/6/18 126/6/18 127/6/18 104/6/18
f 96/4/17 122/4/17 135/4/17 95/4/17
f 108/3/36 113/3/36 110/2/36 107/2/36
f 73/4/17 114/4/17 112/4/17 70/4/17
f 90/4/17 121/4/17 118/4/17 89/4/17
f 104/6/18 127/6/18 136/6/18 79/6/18
f 103/4/17 128/4/17 129/4/17 105/4/17
f 89/4/17 118/4/17 115/4/17 87/4/17
f 97/4/17 123/4/17 122/4/17 96/4/17
f 79/6/35 136/6/35 137/4/35 80/4/35
f 105/4/17 129/4/17 123/4/17 97/4/17
f 72/5/18 111/5/18 138/5/18 83/5/18
f 80/4/17 137/4/17 128/4/17 103/4/17
f 92/6/18 120/6/18 130/6/18 98/6/18
f 83/5/35 138/5/35 116/6/35 76/6/35
f 101/6/18 124/6/18 125/6/18 102/6/18
