# Blender 4.5.1 LTS
# www.blender.org
mtllib Floor1.mtl
o Floor1
v 2309.388428 390.985504 -5428.946289
v 2319.232178 392.229614 -5430.209961
v 2327.480957 392.229614 -5430.209961
v 2337.176758 392.229645 -5436.871582
v 2328.210693 392.229614 -5430.209961
v 2336.459473 392.229614 -5430.209961
v 2337.176758 392.229614 -5430.209961
v 2345.425537 392.229614 -5430.209961
v 2346.182861 392.229614 -5430.209961
v 2354.431641 392.229614 -5430.209961
v 2371.216064 390.985504 -5428.946289
v 2355.280762 392.229614 -5430.209961
v 2363.529541 392.229614 -5430.209961
v 2364.400146 392.229614 -5430.209961
v 2372.648926 392.229614 -5430.209961
v 2373.546143 392.229645 -5430.209961
v 2388.805664 390.985504 -5428.946289
v 2438.998291 392.229675 -5436.873047
v 2389.239014 392.229645 -5430.209961
v 2390.183350 392.229614 -5430.210449
v 2327.480957 392.229645 -5436.265137
v 2438.998291 392.229675 -5436.873047
v 2328.210693 392.229645 -5436.265137
v 2346.182861 400.776672 -5436.871582
v 2336.459473 392.229645 -5436.265137
v 2337.176758 392.229645 -5436.265137
v 2345.425537 400.843903 -5436.871582
v 2345.425537 392.229645 -5436.265137
v 2344.010498 400.969543 -5436.871582
v 2346.182861 392.229645 -5436.265137
v 2354.431641 392.229645 -5436.265137
v 2355.280762 392.229645 -5436.265137
v 2342.020020 401.354309 -5436.871582
v 2363.529541 392.229645 -5436.265137
v 2340.069824 401.973816 -5436.871582
v 2337.176758 403.028717 -5436.871582
v 2364.400146 392.229645 -5436.265137
v 2372.648926 392.229645 -5436.265137
v 2337.997070 402.700500 -5436.871582
v 2373.546143 392.229645 -5436.265137
v 2389.239014 392.229645 -5436.265137
v 2390.183350 392.229645 -5436.265137
v 2405.641357 390.985504 -5428.946289
v 2405.876221 392.229614 -5430.210449
v 2406.744873 392.229614 -5430.210449
v 2422.437744 392.229614 -5430.210449
v 2423.305420 392.229675 -5430.212891
v 2438.998291 392.229675 -5430.212891
v 2439.950928 392.229645 -5430.212891
v 2458.068848 390.985504 -5428.946289
v 2328.210693 405.003571 -5436.871582
v 2457.283447 392.229645 -5430.212891
v 2327.480957 405.146057 -5436.871582
v 2405.876221 392.229645 -5436.265137
v 2336.459473 403.315765 -5436.871582
v 2406.744873 392.229645 -5436.265137
v 2336.084717 403.465820 -5436.871582
v 2422.437744 392.229645 -5436.265137
v 2346.182861 400.776672 -5436.871582
v 2423.305420 392.229675 -5436.265137
v 2438.998291 392.229675 -5436.265137
v 2439.950928 392.229645 -5436.265137
v 2346.484863 400.749847 -5428.946289
v 2344.010498 400.969543 -5428.946289
v 2346.182861 400.776642 -5430.209961
v 2345.425537 400.843903 -5430.209961
v 2319.232178 392.229645 -5436.871582
v 2319.232178 406.757019 -5436.871582
v 2346.484863 400.749847 -5430.209961
v 2344.010498 400.969543 -5430.209961
v 2354.431641 400.749847 -5430.209961
v 2319.232178 406.757019 -5436.265137
v 2342.020020 401.354279 -5428.946289
v 2340.069824 401.973816 -5428.946289
v 2342.020020 401.354279 -5430.209961
v 2340.069824 401.973816 -5430.209961
v 2337.997070 402.700500 -5436.265137
v 2337.997070 402.700470 -5428.946289
v 2340.069824 401.973816 -5436.265137
v 2337.176758 403.028687 -5430.209961
v 2337.997070 402.700470 -5430.209961
v 2358.850586 400.749847 -5428.946289
v 2355.280762 400.749847 -5430.209961
v 2358.850586 400.749847 -5430.209961
v 2363.529541 400.749847 -5430.209961
v 2364.400146 400.749847 -5430.209961
v 2371.216064 400.749847 -5428.946289
v 2371.216064 400.749847 -5430.209961
v 2457.283203 400.749847 -5436.265137
v 2372.648926 400.749847 -5430.209961
v 2373.546143 400.749847 -5430.209961
v 2388.805664 400.749847 -5428.946289
v 2388.805664 400.749847 -5430.209961
v 2457.283203 392.229645 -5436.873047
v 2389.239014 400.749847 -5430.209961
v 2390.183350 400.749847 -5430.210449
v 2457.283203 400.749847 -5436.873047
v 2328.210693 405.003540 -5430.209961
v 2457.283203 392.229645 -5436.873047
v 2327.480957 405.146057 -5430.209961
v 2336.084717 403.465790 -5428.946289
v 2337.176758 392.229645 -5436.873047
v 2336.459473 403.315735 -5430.209961
v 2336.084717 403.465790 -5430.209961
v 2309.390137 407.172333 -5428.946289
v 2318.989990 406.804291 -5428.946289
v 2315.652832 407.073456 -5428.946289
v 2319.232178 406.757019 -5430.209961
v 2346.182861 400.776642 -5436.265625
v 2345.425537 400.843903 -5436.265625
v 2354.431641 400.749847 -5436.265625
v 2337.176758 403.028687 -5436.265625
v 2355.280762 400.749847 -5436.265625
v 2363.529541 400.749847 -5436.265625
v 2364.400146 400.749847 -5436.265625
v 2372.648926 400.749847 -5436.265625
v 2373.546143 400.749847 -5436.265625
v 2389.239014 400.749847 -5436.265625
v 2390.183350 400.749847 -5436.265625
v 2328.210693 405.003540 -5436.265625
v 2327.480957 405.146057 -5436.265625
v 2336.459473 403.315735 -5436.265625
v 2405.641357 400.749847 -5428.946289
v 2405.641357 400.749847 -5430.210449
v 2405.876221 400.749847 -5430.210449
v 2406.744873 400.749847 -5430.210449
v 2422.437744 400.749847 -5430.210449
v 2457.283203 392.229645 -5436.873047
v 2423.305420 400.749847 -5430.212891
v 2438.998291 400.749847 -5430.212891
v 2439.950928 400.749847 -5430.212891
v 2458.068848 400.749847 -5428.946289
v 2327.480957 405.146057 -5436.873047
v 2457.283447 400.749847 -5430.212891
v 2328.210693 405.003571 -5436.873047
v 2405.876221 400.749847 -5436.265625
v 2336.459473 403.315765 -5436.873047
v 2406.744873 400.749847 -5436.265625
v 2337.176758 403.028717 -5436.873047
v 2422.437744 400.749847 -5436.265625
v 2423.305420 400.749847 -5436.265625
v 2345.425537 400.843903 -5436.873047
v 2438.998291 400.749847 -5436.265625
v 2346.182861 400.776672 -5436.873047
v 2439.950928 400.749847 -5436.265625
v 2319.232178 392.229614 -5439.115234
v 2319.232178 392.229645 -5439.701172
v 2327.480957 392.229645 -5439.701172
v 2327.480957 392.229645 -5439.701172
v 2327.480957 392.229645 -5439.701172
v 2328.210693 392.229645 -5439.701172
v 2337.176758 392.229614 -5439.115234
v 2337.176758 392.229645 -5439.115234
v 2346.182861 392.229614 -5439.115234
v 2346.182861 392.229645 -5439.115234
v 2336.459473 392.229645 -5439.701172
v 2336.459473 392.229645 -5439.701172
v 2336.459473 392.229645 -5439.701172
v 2337.176758 392.229645 -5439.701172
v 2345.425537 392.229645 -5439.701172
v 2345.425537 392.229645 -5439.701172
v 2345.425537 392.229645 -5439.701172
v 2346.182861 392.229645 -5439.701172
v 2354.431641 392.229645 -5439.701172
v 2354.431641 392.229645 -5439.701172
v 2354.431641 392.229645 -5439.701172
v 2355.280762 392.229645 -5439.701172
v 2363.529541 392.229645 -5439.701172
v 2363.529541 392.229645 -5439.701172
v 2363.529541 392.229645 -5439.701172
v 2364.400146 392.229645 -5439.701172
v 2372.648926 392.229645 -5439.701172
v 2372.648926 392.229645 -5439.701172
v 2372.648926 392.229645 -5439.701172
v 2373.546143 392.229645 -5439.701172
v 2373.546143 392.229645 -5439.701172
v 2389.239014 392.229645 -5439.701172
v 2389.239014 392.229645 -5439.701172
v 2389.239014 392.229645 -5439.701172
v 2390.183350 392.229645 -5439.701172
v 2390.183350 392.229614 -5439.701172
v 2319.232178 392.229614 -5445.830566
v 2327.480957 392.229614 -5445.830566
v 2328.210693 392.229614 -5445.830566
v 2336.459473 392.229614 -5445.830566
v 2337.176758 392.229614 -5445.830566
v 2345.425537 392.229614 -5445.830566
v 2346.182861 392.229614 -5445.830566
v 2354.431641 392.229614 -5445.830566
v 2309.388428 390.985504 -5446.926758
v 2355.280762 392.229614 -5445.830566
v 2363.529541 392.229614 -5445.830566
v 2364.400146 392.229614 -5445.830566
v 2372.648926 392.229614 -5445.830566
v 2373.546143 392.229645 -5445.830566
v 2389.239014 392.229645 -5445.830566
v 2371.216064 390.985504 -5446.926758
v 2388.805664 390.985504 -5446.926758
v 2390.183350 392.229614 -5447.080078
v 2388.805664 390.985504 -5448.211426
v 2405.876221 392.229614 -5439.701172
v 2405.876221 392.229645 -5439.701172
v 2405.876221 392.229645 -5439.701172
v 2406.744873 392.229645 -5439.701660
v 2406.744873 392.229614 -5448.373535
v 2422.437744 392.229645 -5439.701660
v 2422.437744 392.229645 -5439.701660
v 2422.437744 392.229645 -5439.701660
v 2457.283203 392.229645 -5439.115234
v 2423.305420 392.229675 -5439.702637
v 2423.305420 392.229675 -5439.702637
v 2438.998291 392.229675 -5439.702637
v 2439.950928 392.229645 -5439.702637
v 2457.283203 392.229645 -5439.115234
v 2457.283203 392.229645 -5439.702637
v 2405.876221 392.229614 -5447.080078
v 2405.641357 390.985504 -5448.211426
v 2405.641357 390.985504 -5449.495605
v 2406.744873 392.229614 -5448.373535
v 2422.437744 392.229614 -5448.373535
v 2423.305420 392.229675 -5448.373047
v 2438.998291 392.229675 -5448.373047
v 2439.950928 392.229645 -5448.373047
v 2458.068848 390.985504 -5449.495605
v 2457.283447 392.229645 -5448.373047
v 2346.484863 400.749847 -5439.115234
v 2344.010498 400.969543 -5439.115234
v 2346.182861 400.776672 -5439.701172
v 2345.425537 400.843903 -5439.701172
v 2344.010498 400.969543 -5439.701172
v 2354.431641 400.749847 -5439.701172
v 2342.020020 401.354309 -5439.115234
v 2340.069824 401.973816 -5439.115234
v 2337.997070 402.700500 -5439.115234
v 2342.020020 401.354309 -5439.701172
v 2340.069824 401.973816 -5439.701172
v 2337.176758 403.028717 -5439.701172
v 2337.997070 402.700500 -5439.701172
v 2405.641357 400.749847 -5439.115234
v 2355.280762 400.749847 -5439.701172
v 2363.529541 400.749847 -5439.701172
v 2364.400146 400.749847 -5439.701172
v 2372.648926 400.749847 -5439.701172
v 2372.648926 400.749847 -5439.701172
v 2372.648926 400.749847 -5445.830566
v 2373.546143 400.749847 -5439.701172
v 2373.546143 400.749847 -5439.701172
v 2389.239014 400.749847 -5439.701172
v 2389.239014 400.749847 -5439.701172
v 2389.239014 400.749847 -5439.701172
v 2390.183350 400.749847 -5439.701172
v 2390.183350 400.749847 -5439.701172
v 2328.210693 405.003571 -5439.701172
v 2327.480957 405.146057 -5439.701172
v 2327.480957 405.146057 -5439.701172
v 2336.084717 403.465820 -5439.115234
v 2336.459473 403.315765 -5439.701172
v 2336.084717 403.465820 -5439.701172
v 2319.232178 406.757019 -5439.115234
v 2319.232178 406.757019 -5439.701172
v 2346.182861 400.776642 -5445.830566
v 2345.425537 400.843903 -5445.830566
v 2346.484863 400.749847 -5445.830566
v 2344.010498 400.969543 -5445.830566
v 2354.431641 400.749847 -5445.830566
v 2342.020020 401.354279 -5445.830566
v 2340.069824 401.973816 -5445.830566
v 2337.176758 403.028687 -5445.830566
v 2337.997070 402.700470 -5445.830566
v 2346.484863 400.749847 -5446.926758
v 2344.010498 400.969543 -5446.926758
v 2342.020020 401.354279 -5446.926758
v 2340.069824 401.973816 -5446.926758
v 2337.997070 402.700470 -5446.926758
v 2355.280762 400.749847 -5445.830566
v 2363.529541 400.749847 -5445.830566
v 2364.400146 400.749847 -5445.830566
v 2372.648926 400.749847 -5445.830566
v 2373.546143 400.749847 -5445.830566
v 2389.239014 400.749847 -5445.830566
v 2358.850586 400.749847 -5446.926758
v 2371.216064 400.749847 -5446.926758
v 2388.805664 400.749847 -5446.926758
v 2390.183350 400.749847 -5447.080078
v 2388.805664 400.749847 -5448.211426
v 2328.210693 405.003540 -5445.830566
v 2327.480957 405.146057 -5445.830566
v 2336.459473 403.315735 -5445.830566
v 2336.084717 403.465790 -5445.830566
v 2319.232178 406.757019 -5445.830566
v 2336.084717 403.465790 -5446.926758
v 2309.390137 407.172333 -5446.926758
v 2318.989990 406.804291 -5446.926758
v 2315.652832 407.073456 -5446.926758
v 2405.641357 400.749847 -5439.115234
v 2405.876221 400.749847 -5439.701172
v 2405.876221 400.749847 -5439.701660
v 2406.744873 400.749847 -5439.701660
v 2406.744873 400.749847 -5439.701660
v 2422.437744 400.749847 -5439.701660
v 2423.305420 400.749847 -5439.702637
v 2423.305420 400.749847 -5439.702637
v 2423.305420 400.749847 -5439.701660
v 2438.998291 400.749847 -5439.702637
v 2438.998291 400.749847 -5439.702637
v 2438.998291 400.749847 -5439.702637
v 2439.950928 400.749847 -5439.702637
v 2439.950928 400.749847 -5439.702637
v 2439.950928 400.749847 -5439.702637
v 2457.283203 400.749847 -5439.115234
v 2457.283203 400.749847 -5439.702637
v 2405.876221 400.749847 -5447.080078
v 2405.641357 400.749847 -5448.211426
v 2406.744873 400.749847 -5448.373535
v 2405.641357 400.749847 -5449.495605
v 2422.437744 400.749847 -5448.373535
v 2423.305420 400.749847 -5448.373047
v 2438.998291 400.749847 -5448.373047
v 2439.950928 400.749847 -5448.373047
v 2457.283447 400.749847 -5448.373047
v 2458.068848 400.749847 -5449.495605
v 2389.239014 392.229645 -5436.265137
v 2373.546143 392.229645 -5436.265137
v 2390.183350 392.229614 -5436.265137
v 2390.183350 392.229645 -5436.265137
v 2405.876221 392.229614 -5436.265137
v 2406.744873 392.229614 -5436.265137
v 2406.744873 392.229645 -5436.265137
v 2422.437744 392.229614 -5436.265137
v 2457.283203 392.229645 -5436.873047
v 2457.283203 392.229645 -5436.265137
v 2439.950928 392.229645 -5436.265137
v 2346.182861 392.229614 -5436.265137
v 2346.182861 392.229645 -5436.265137
v 2354.431641 392.229614 -5436.265137
v 2354.431641 392.229645 -5436.265137
v 2364.400146 392.229614 -5436.265137
v 2364.400146 392.229645 -5436.265137
v 2372.648926 392.229614 -5436.265137
v 2372.648926 392.229645 -5436.265137
v 2327.480957 392.229614 -5436.265137
v 2327.480957 392.229645 -5436.871582
v 2327.480957 392.229645 -5436.265137
v 2327.480957 392.229645 -5436.871582
v 2337.176758 392.229614 -5436.265137
v 2337.176758 392.229614 -5436.873047
v 2337.176758 392.229645 -5436.265137
v 2337.176758 392.229645 -5436.873047
v 2345.425537 392.229614 -5436.265137
v 2345.425537 392.229645 -5436.871582
v 2345.425537 392.229645 -5436.873047
v 2345.425537 392.229614 -5436.873047
v 2345.425537 392.229645 -5436.265137
v 2345.425537 392.229645 -5436.871582
v 2328.210693 392.229614 -5436.265137
v 2328.210693 392.229645 -5436.265137
v 2336.459473 392.229614 -5436.265137
v 2336.459473 392.229645 -5436.265137
v 2355.280762 392.229614 -5436.265137
v 2355.280762 392.229645 -5436.265137
v 2363.529541 392.229614 -5436.265137
v 2363.529541 392.229645 -5436.265137
v 2337.176758 392.229645 -5436.873047
v 2345.425537 392.229645 -5436.871582
v 2345.425537 392.229645 -5436.873047
v 2405.876221 392.229645 -5436.265137
v 2422.437744 392.229645 -5436.265137
v 2439.950928 392.229645 -5436.265137
v 2319.232178 392.229645 -5436.260254
v 2342.020020 401.354309 -5436.265625
v 2344.010498 400.969543 -5436.265625
v 2672.077881 390.985504 -5428.946289
v 2662.234131 392.229614 -5430.209961
v 2653.985352 392.229614 -5430.209961
v 2644.289551 392.229645 -5436.871582
v 2653.255615 392.229614 -5430.209961
v 2645.006836 392.229614 -5430.209961
v 2644.289551 392.229614 -5430.209961
v 2636.040771 392.229614 -5430.209961
v 2635.283447 392.229614 -5430.209961
v 2627.034668 392.229614 -5430.209961
v 2610.250244 390.985504 -5428.946289
v 2626.185547 392.229614 -5430.209961
v 2617.936768 392.229614 -5430.209961
v 2617.066162 392.229614 -5430.209961
v 2608.817383 392.229614 -5430.209961
v 2607.920166 392.229645 -5430.209961
v 2592.660645 390.985504 -5428.946289
v 2542.468018 392.229675 -5436.873047
v 2592.227295 392.229645 -5430.209961
v 2591.282959 392.229614 -5430.210449
v 2653.985352 392.229645 -5436.265137
v 2542.468018 392.229675 -5436.873047
v 2653.255615 392.229645 -5436.265137
v 2635.283447 400.776672 -5436.871582
v 2645.006836 392.229645 -5436.265137
v 2644.289551 392.229645 -5436.265137
v 2636.040771 400.843903 -5436.871582
v 2636.040771 392.229645 -5436.265137
v 2637.455811 400.969543 -5436.871582
v 2635.283447 392.229645 -5436.265137
v 2627.034668 392.229645 -5436.265137
v 2626.185547 392.229645 -5436.265137
v 2639.446289 401.354309 -5436.871582
v 2617.936768 392.229645 -5436.265137
v 2641.396484 401.973816 -5436.871582
v 2644.289551 403.028717 -5436.871582
v 2617.066162 392.229645 -5436.265137
v 2608.817383 392.229645 -5436.265137
v 2643.469238 402.700500 -5436.871582
v 2607.920166 392.229645 -5436.265137
v 2592.227295 392.229645 -5436.265137
v 2591.282959 392.229645 -5436.265137
v 2575.824951 390.985504 -5428.946289
v 2575.590088 392.229614 -5430.210449
v 2574.721436 392.229614 -5430.210449
v 2559.028564 392.229614 -5430.210449
v 2558.160889 392.229675 -5430.212891
v 2542.468018 392.229675 -5430.212891
v 2541.515381 392.229645 -5430.212891
v 2523.397461 390.985504 -5428.946289
v 2653.255615 405.003571 -5436.871582
v 2524.182861 392.229645 -5430.212891
v 2653.985352 405.146057 -5436.871582
v 2575.590088 392.229645 -5436.265137
v 2645.006836 403.315765 -5436.871582
v 2574.721436 392.229645 -5436.265137
v 2645.381592 403.465820 -5436.871582
v 2559.028564 392.229645 -5436.265137
v 2635.283447 400.776672 -5436.871582
v 2558.160889 392.229675 -5436.265137
v 2542.468018 392.229675 -5436.265137
v 2541.515381 392.229645 -5436.265137
v 2634.981445 400.749847 -5428.946289
v 2637.455811 400.969543 -5428.946289
v 2635.283447 400.776642 -5430.209961
v 2636.040771 400.843903 -5430.209961
v 2662.234131 392.229645 -5436.871582
v 2662.234131 406.757019 -5436.871582
v 2634.981445 400.749847 -5430.209961
v 2637.455811 400.969543 -5430.209961
v 2627.034668 400.749847 -5430.209961
v 2662.234131 406.757019 -5436.265137
v 2639.446289 401.354279 -5428.946289
v 2641.396484 401.973816 -5428.946289
v 2639.446289 401.354279 -5430.209961
v 2641.396484 401.973816 -5430.209961
v 2643.469238 402.700500 -5436.265137
v 2643.469238 402.700470 -5428.946289
v 2641.396484 401.973816 -5436.265137
v 2644.289551 403.028687 -5430.209961
v 2643.469238 402.700470 -5430.209961
v 2622.615723 400.749847 -5428.946289
v 2626.185547 400.749847 -5430.209961
v 2622.615723 400.749847 -5430.209961
v 2617.936768 400.749847 -5430.209961
v 2617.066162 400.749847 -5430.209961
v 2610.250244 400.749847 -5428.946289
v 2610.250244 400.749847 -5430.209961
v 2524.183105 400.749847 -5436.265137
v 2608.817383 400.749847 -5430.209961
v 2607.920166 400.749847 -5430.209961
v 2592.660645 400.749847 -5428.946289
v 2592.660645 400.749847 -5430.209961
v 2524.183105 392.229645 -5436.873047
v 2592.227295 400.749847 -5430.209961
v 2591.282959 400.749847 -5430.210449
v 2524.183105 400.749847 -5436.873047
v 2653.255615 405.003540 -5430.209961
v 2524.183105 392.229645 -5436.873047
v 2653.985352 405.146057 -5430.209961
v 2645.381592 403.465790 -5428.946289
v 2644.289551 392.229645 -5436.873047
v 2645.006836 403.315735 -5430.209961
v 2645.381592 403.465790 -5430.209961
v 2672.076172 407.172333 -5428.946289
v 2662.476318 406.804291 -5428.946289
v 2665.813477 407.073456 -5428.946289
v 2662.234131 406.757019 -5430.209961
v 2635.283447 400.776642 -5436.265625
v 2636.040771 400.843903 -5436.265625
v 2627.034668 400.749847 -5436.265625
v 2644.289551 403.028687 -5436.265625
v 2626.185547 400.749847 -5436.265625
v 2617.936768 400.749847 -5436.265625
v 2617.066162 400.749847 -5436.265625
v 2608.817383 400.749847 -5436.265625
v 2607.920166 400.749847 -5436.265625
v 2592.227295 400.749847 -5436.265625
v 2591.282959 400.749847 -5436.265625
v 2653.255615 405.003540 -5436.265625
v 2653.985352 405.146057 -5436.265625
v 2645.006836 403.315735 -5436.265625
v 2575.824951 400.749847 -5428.946289
v 2575.824951 400.749847 -5430.210449
v 2575.590088 400.749847 -5430.210449
v 2574.721436 400.749847 -5430.210449
v 2559.028564 400.749847 -5430.210449
v 2524.183105 392.229645 -5436.873047
v 2558.160889 400.749847 -5430.212891
v 2542.468018 400.749847 -5430.212891
v 2541.515381 400.749847 -5430.212891
v 2523.397461 400.749847 -5428.946289
v 2653.985352 405.146057 -5436.873047
v 2524.182861 400.749847 -5430.212891
v 2653.255615 405.003571 -5436.873047
v 2575.590088 400.749847 -5436.265625
v 2645.006836 403.315765 -5436.873047
v 2574.721436 400.749847 -5436.265625
v 2644.289551 403.028717 -5436.873047
v 2559.028564 400.749847 -5436.265625
v 2558.160889 400.749847 -5436.265625
v 2636.040771 400.843903 -5436.873047
v 2542.468018 400.749847 -5436.265625
v 2635.283447 400.776672 -5436.873047
v 2541.515381 400.749847 -5436.265625
v 2662.234131 392.229614 -5439.115234
v 2662.234131 392.229645 -5439.701172
v 2653.985352 392.229645 -5439.701172
v 2653.985352 392.229645 -5439.701172
v 2653.985352 392.229645 -5439.701172
v 2653.255615 392.229645 -5439.701172
v 2644.289551 392.229614 -5439.115234
v 2644.289551 392.229645 -5439.115234
v 2635.283447 392.229614 -5439.115234
v 2635.283447 392.229645 -5439.115234
v 2645.006836 392.229645 -5439.701172
v 2645.006836 392.229645 -5439.701172
v 2645.006836 392.229645 -5439.701172
v 2644.289551 392.229645 -5439.701172
v 2636.040771 392.229645 -5439.701172
v 2636.040771 392.229645 -5439.701172
v 2636.040771 392.229645 -5439.701172
v 2635.283447 392.229645 -5439.701172
v 2627.034668 392.229645 -5439.701172
v 2627.034668 392.229645 -5439.701172
v 2627.034668 392.229645 -5439.701172
v 2626.185547 392.229645 -5439.701172
v 2617.936768 392.229645 -5439.701172
v 2617.936768 392.229645 -5439.701172
v 2617.936768 392.229645 -5439.701172
v 2617.066162 392.229645 -5439.701172
v 2608.817383 392.229645 -5439.701172
v 2608.817383 392.229645 -5439.701172
v 2608.817383 392.229645 -5439.701172
v 2607.920166 392.229645 -5439.701172
v 2607.920166 392.229645 -5439.701172
v 2592.227295 392.229645 -5439.701172
v 2592.227295 392.229645 -5439.701172
v 2592.227295 392.229645 -5439.701172
v 2591.282959 392.229645 -5439.701172
v 2591.282959 392.229614 -5439.701172
v 2662.234131 392.229614 -5445.830566
v 2653.985352 392.229614 -5445.830566
v 2653.255615 392.229614 -5445.830566
v 2645.006836 392.229614 -5445.830566
v 2644.289551 392.229614 -5445.830566
v 2636.040771 392.229614 -5445.830566
v 2635.283447 392.229614 -5445.830566
v 2627.034668 392.229614 -5445.830566
v 2672.077881 390.985504 -5446.926758
v 2626.185547 392.229614 -5445.830566
v 2617.936768 392.229614 -5445.830566
v 2617.066162 392.229614 -5445.830566
v 2608.817383 392.229614 -5445.830566
v 2607.920166 392.229645 -5445.830566
v 2592.227295 392.229645 -5445.830566
v 2610.250244 390.985504 -5446.926758
v 2592.660645 390.985504 -5446.926758
v 2591.282959 392.229614 -5447.080078
v 2592.660645 390.985504 -5448.211426
v 2575.590088 392.229614 -5439.701172
v 2575.590088 392.229645 -5439.701172
v 2575.590088 392.229645 -5439.701172
v 2574.721436 392.229645 -5439.701660
v 2574.721436 392.229614 -5448.373535
v 2559.028564 392.229645 -5439.701660
v 2559.028564 392.229645 -5439.701660
v 2559.028564 392.229645 -5439.701660
v 2524.183105 392.229645 -5439.115234
v 2558.160889 392.229675 -5439.702637
v 2558.160889 392.229675 -5439.702637
v 2542.468018 392.229675 -5439.702637
v 2541.515381 392.229645 -5439.702637
v 2524.183105 392.229645 -5439.115234
v 2524.183105 392.229645 -5439.702637
v 2575.590088 392.229614 -5447.080078
v 2575.824951 390.985504 -5448.211426
v 2575.824951 390.985504 -5449.495605
v 2574.721436 392.229614 -5448.373535
v 2559.028564 392.229614 -5448.373535
v 2558.160889 392.229675 -5448.373047
v 2542.468018 392.229675 -5448.373047
v 2541.515381 392.229645 -5448.373047
v 2523.397461 390.985504 -5449.495605
v 2524.182861 392.229645 -5448.373047
v 2634.981445 400.749847 -5439.115234
v 2637.455811 400.969543 -5439.115234
v 2635.283447 400.776672 -5439.701172
v 2636.040771 400.843903 -5439.701172
v 2637.455811 400.969543 -5439.701172
v 2627.034668 400.749847 -5439.701172
v 2639.446289 401.354309 -5439.115234
v 2641.396484 401.973816 -5439.115234
v 2643.469238 402.700500 -5439.115234
v 2639.446289 401.354309 -5439.701172
v 2641.396484 401.973816 -5439.701172
v 2644.289551 403.028717 -5439.701172
v 2643.469238 402.700500 -5439.701172
v 2575.824951 400.749847 -5439.115234
v 2626.185547 400.749847 -5439.701172
v 2617.936768 400.749847 -5439.701172
v 2617.066162 400.749847 -5439.701172
v 2608.817383 400.749847 -5439.701172
v 2608.817383 400.749847 -5439.701172
v 2608.817383 400.749847 -5445.830566
v 2607.920166 400.749847 -5439.701172
v 2607.920166 400.749847 -5439.701172
v 2592.227295 400.749847 -5439.701172
v 2592.227295 400.749847 -5439.701172
v 2592.227295 400.749847 -5439.701172
v 2591.282959 400.749847 -5439.701172
v 2591.282959 400.749847 -5439.701172
v 2653.255615 405.003571 -5439.701172
v 2653.985352 405.146057 -5439.701172
v 2653.985352 405.146057 -5439.701172
v 2645.381592 403.465820 -5439.115234
v 2645.006836 403.315765 -5439.701172
v 2645.381592 403.465820 -5439.701172
v 2662.234131 406.757019 -5439.115234
v 2662.234131 406.757019 -5439.701172
v 2635.283447 400.776642 -5445.830566
v 2636.040771 400.843903 -5445.830566
v 2634.981445 400.749847 -5445.830566
v 2637.455811 400.969543 -5445.830566
v 2627.034668 400.749847 -5445.830566
v 2639.446289 401.354279 -5445.830566
v 2641.396484 401.973816 -5445.830566
v 2644.289551 403.028687 -5445.830566
v 2643.469238 402.700470 -5445.830566
v 2634.981445 400.749847 -5446.926758
v 2637.455811 400.969543 -5446.926758
v 2639.446289 401.354279 -5446.926758
v 2641.396484 401.973816 -5446.926758
v 2643.469238 402.700470 -5446.926758
v 2626.185547 400.749847 -5445.830566
v 2617.936768 400.749847 -5445.830566
v 2617.066162 400.749847 -5445.830566
v 2608.817383 400.749847 -5445.830566
v 2607.920166 400.749847 -5445.830566
v 2592.227295 400.749847 -5445.830566
v 2622.615723 400.749847 -5446.926758
v 2610.250244 400.749847 -5446.926758
v 2592.660645 400.749847 -5446.926758
v 2591.282959 400.749847 -5447.080078
v 2592.660645 400.749847 -5448.211426
v 2653.255615 405.003540 -5445.830566
v 2653.985352 405.146057 -5445.830566
v 2645.006836 403.315735 -5445.830566
v 2645.381592 403.465790 -5445.830566
v 2662.234131 406.757019 -5445.830566
v 2645.381592 403.465790 -5446.926758
v 2672.076172 407.172333 -5446.926758
v 2662.476318 406.804291 -5446.926758
v 2665.813477 407.073456 -5446.926758
v 2575.824951 400.749847 -5439.115234
v 2575.590088 400.749847 -5439.701172
v 2575.590088 400.749847 -5439.701660
v 2574.721436 400.749847 -5439.701660
v 2574.721436 400.749847 -5439.701660
v 2559.028564 400.749847 -5439.701660
v 2558.160889 400.749847 -5439.702637
v 2558.160889 400.749847 -5439.702637
v 2558.160889 400.749847 -5439.701660
v 2542.468018 400.749847 -5439.702637
v 2542.468018 400.749847 -5439.702637
v 2542.468018 400.749847 -5439.702637
v 2541.515381 400.749847 -5439.702637
v 2541.515381 400.749847 -5439.702637
v 2541.515381 400.749847 -5439.702637
v 2524.183105 400.749847 -5439.115234
v 2524.183105 400.749847 -5439.702637
v 2575.590088 400.749847 -5447.080078
v 2575.824951 400.749847 -5448.211426
v 2574.721436 400.749847 -5448.373535
v 2575.824951 400.749847 -5449.495605
v 2559.028564 400.749847 -5448.373535
v 2558.160889 400.749847 -5448.373047
v 2542.468018 400.749847 -5448.373047
v 2541.515381 400.749847 -5448.373047
v 2524.182861 400.749847 -5448.373047
v 2523.397461 400.749847 -5449.495605
v 2592.227295 392.229645 -5436.265137
v 2607.920166 392.229645 -5436.265137
v 2591.282959 392.229614 -5436.265137
v 2591.282959 392.229645 -5436.265137
v 2575.590088 392.229614 -5436.265137
v 2574.721436 392.229614 -5436.265137
v 2574.721436 392.229645 -5436.265137
v 2559.028564 392.229614 -5436.265137
v 2524.183105 392.229645 -5436.873047
v 2524.183105 392.229645 -5436.265137
v 2541.515381 392.229645 -5436.265137
v 2635.283447 392.229614 -5436.265137
v 2635.283447 392.229645 -5436.265137
v 2627.034668 392.229614 -5436.265137
v 2627.034668 392.229645 -5436.265137
v 2617.066162 392.229614 -5436.265137
v 2617.066162 392.229645 -5436.265137
v 2608.817383 392.229614 -5436.265137
v 2608.817383 392.229645 -5436.265137
v 2653.985352 392.229614 -5436.265137
v 2653.985352 392.229645 -5436.871582
v 2653.985352 392.229645 -5436.265137
v 2653.985352 392.229645 -5436.871582
v 2644.289551 392.229614 -5436.265137
v 2644.289551 392.229614 -5436.873047
v 2644.289551 392.229645 -5436.265137
v 2644.289551 392.229645 -5436.873047
v 2636.040771 392.229614 -5436.265137
v 2636.040771 392.229645 -5436.871582
v 2636.040771 392.229645 -5436.873047
v 2636.040771 392.229614 -5436.873047
v 2636.040771 392.229645 -5436.265137
v 2636.040771 392.229645 -5436.871582
v 2653.255615 392.229614 -5436.265137
v 2653.255615 392.229645 -5436.265137
v 2645.006836 392.229614 -5436.265137
v 2645.006836 392.229645 -5436.265137
v 2626.185547 392.229614 -5436.265137
v 2626.185547 392.229645 -5436.265137
v 2617.936768 392.229614 -5436.265137
v 2617.936768 392.229645 -5436.265137
v 2644.289551 392.229645 -5436.873047
v 2636.040771 392.229645 -5436.871582
v 2636.040771 392.229645 -5436.873047
v 2575.590088 392.229645 -5436.265137
v 2559.028564 392.229645 -5436.265137
v 2541.515381 392.229645 -5436.265137
v 2662.234131 392.229645 -5436.260254
v 2639.446289 401.354309 -5436.265625
v 2637.455811 400.969543 -5436.265625
vn -0.0000 -0.0000 -1.0000
vn 0.3716 0.9284 -0.0000
vn 0.1917 0.9815 -0.0000
vn 0.1282 0.9918 -0.0000
vn 0.0884 0.9961 -0.0000
vn 0.1898 0.9818 -0.0000
vn 0.3028 0.9531 -0.0000
vn 0.3308 0.9437 -0.0000
vn 0.0158 0.9999 -0.0000
vn -0.0000 -0.0000 1.0000
vn -1.0000 -0.0000 -0.0000
vn -1.0000 0.0001 -0.0000
vn 1.0000 -0.0000 -0.0000
vn -0.0000 1.0000 -0.0000
vn 0.2112 0.9771 0.0260
vn -0.0000 -1.0000 -0.0000
vn 0.0004 0.0002 1.0000
vn -0.0001 0.0002 -1.0000
vn -0.0000 0.0001 -1.0000
vn 0.0002 1.0000 0.0031
vn 0.0019 0.9998 0.0201
vn -0.0884 -0.9961 -0.0000
vn -0.0007 0.0002 -1.0000
vn 0.0043 -0.0002 1.0000
vn -0.3716 0.9284 -0.0000
vn -0.1917 0.9815 -0.0000
vn -0.1282 0.9918 -0.0000
vn -0.0884 0.9961 -0.0000
vn -0.1898 0.9818 -0.0000
vn -0.3028 0.9531 -0.0000
vn -0.3308 0.9437 -0.0000
vn -0.0158 0.9999 -0.0000
vn 1.0000 0.0001 -0.0000
vn -0.2112 0.9771 0.0260
vn -0.0004 0.0002 1.0000
vn 0.0001 0.0002 -1.0000
vn -0.0002 1.0000 0.0031
vn -0.0019 0.9998 0.0201
vn 0.0885 -0.9961 0.0005
vn 0.0007 0.0002 -1.0000
vn -0.0043 -0.0002 1.0000
vt 0.625000 0.423189
vt 0.375000 0.423189
vt 0.375000 0.500000
vt 0.625000 0.500000
vt 0.875000 0.734626
vt 0.875000 0.750000
vt 0.875000 0.673034
vt 0.875000 0.673034
vt 0.875000 0.531250
vt 0.875000 0.544588
vt 0.875000 0.544588
vt 0.875000 0.544588
vt 0.875000 0.544588
vt 0.875000 0.734626
vt 0.875000 0.673033
vt 0.625000 1.000000
vt 0.375000 1.000000
vt 0.375000 0.234375
vt 0.625000 0.234375
vt 0.625000 0.218750
vt 0.375000 0.218750
vt 0.375000 0.000000
vt 0.625000 0.000000
vt 0.625000 0.750000
vt 0.375000 0.750000
vt 0.375000 0.826811
vt 0.625000 0.826811
vt 0.375000 0.081026
vt 0.430675 0.081026
vt 0.430675 0.000000
vt 0.430675 0.668974
vt 0.375000 0.668974
vt 0.430675 0.750000
vt 0.430675 0.756906
vt 0.430675 1.000000
vt 0.430675 0.753743
vt 0.430675 0.750000
vt 0.430675 1.000000
vt 0.125000 0.500000
vt 0.125000 0.596556
vt 0.375000 0.596556
vt 0.430675 0.250000
vt 0.375000 0.250000
vt 0.430675 0.500000
vt 0.430675 1.000000
vt 0.430675 0.750000
vt 0.375000 0.069653
vt 0.430675 0.069653
vt 0.430675 0.000000
vt 0.430675 0.250000
vt 0.430675 0.500000
vt 0.430675 0.680347
vt 0.375000 0.680347
vt 0.430675 0.750000
vt 0.375000 0.750003
vt 0.430675 1.000000
vt 0.125000 0.750000
vt 0.125000 0.680347
vt 0.430675 0.250000
vt 0.430675 0.500000
vt 0.430824 0.250000
vt 0.430675 0.259153
vt 0.430824 1.000000
vt 0.430675 0.990847
vt 0.430675 0.793431
vt 0.464051 0.250000
vt 0.455100 0.500000
vt 0.464051 1.000000
vt 0.455100 0.750000
vt 0.375000 0.155338
vt 0.375000 0.155338
vt 0.375000 0.091412
vt 0.375000 0.091412
vt 0.443336 0.250000
vt 0.431198 0.500000
vt 0.431896 0.457108
vt 0.434034 0.396784
vt 0.437476 0.337680
vt 0.441513 0.274856
vt 0.431896 0.792892
vt 0.431198 0.750000
vt 0.443336 1.000000
vt 0.441513 0.975144
vt 0.437476 0.912320
vt 0.434034 0.853216
vt 0.454309 0.250000
vt 0.444931 0.500000
vt 0.445765 0.488637
vt 0.444931 0.750000
vt 0.454309 1.000000
vt 0.445765 0.761364
vt 0.430675 0.891813
vt 0.609318 0.500000
vt 0.000000 0.000000
vt 0.430675 0.750003
vt 0.501918 0.500000
vt 0.875000 0.749997
vt 0.875000 0.749997
vt 0.430675 1.000000
vt 0.375000 0.999999
vt 0.464051 1.000000
vt 0.375000 0.750000
vt 0.375000 0.750000
vt 0.875000 0.734588
vt 0.875000 0.734588
vt 0.443336 0.000051
vt 0.443336 0.000000
vt 0.375000 0.000051
vt 0.125000 0.749949
vt 0.375000 0.750000
vt 0.375000 0.749949
vt 0.875000 0.608652
vt 0.430675 0.250000
s 0
usemtl 
f 321/1/1 224/2/1 218/3/1 315/4/1
f 103/5/2 104/5/2 101/6/2 78/6/2 81/5/2 80/5/2 112/7/2 122/7/2
f 121/7/3 100/5/3 98/5/3 120/8/3
f 294/9/4 107/6/4 106/6/4 101/6/4 104/5/4 98/5/4 100/5/4 108/5/4 290/10/4 287/11/4 286/12/4 289/13/4 291/9/4 293/9/4
f 66/5/5 70/5/5 64/6/5 63/6/5 69/5/5 65/14/5 109/15/5 110/7/5
f 264/13/6 271/9/6 272/9/6 266/13/6
f 64/6/6 70/5/6 75/5/6 73/6/6
f 273/9/7 267/13/7 266/13/7 272/9/7
f 76/5/7 74/6/7 73/6/7 75/5/7
f 274/9/8 269/13/8 267/13/8 273/9/8
f 81/5/8 78/6/8 74/6/8 76/5/8
f 105/6/9 107/6/9 294/9/9 292/9/9
f 106/16/10 107/16/10 105/16/10 1/17/10 11/17/10 17/17/10 43/17/10 123/16/10 92/16/10 87/16/10 82/16/10 63/16/10 64/16/10 73/16/10 74/16/10 78/16/10 101/16/10
f 217/18/1 200/18/1 285/19/1 313/19/1
f 283/20/1 198/21/1 197/21/1 282/20/1
f 285/19/11 200/18/11 198/21/11 283/20/11
f 1/22/12 105/23/12 292/20/12 190/21/12
f 281/20/1 282/20/1 197/21/1 190/21/1 292/20/1 294/20/1 293/20/1 291/20/1 274/20/1 273/20/1 272/20/1 271/20/1 270/20/1
f 123/24/10 43/25/10 50/26/10 132/27/10
f 315/4/11 218/3/11 217/18/11 313/19/11
f 16/22/13 40/28/13 117/29/13 91/30/13
f 118/31/11 41/32/11 19/25/11 95/33/11
f 93/34/1 95/33/1 19/25/1 16/17/1 91/35/1
f 124/36/1 125/37/1 44/25/1 20/17/1 96/38/1
f 199/39/14 181/40/14 201/41/14 216/3/14
f 314/42/10 219/43/10 220/3/10 316/44/10
f 46/25/1 45/17/1 126/45/1 127/46/1
f 47/22/13 60/47/13 141/48/13 129/49/13
f 317/50/10 221/43/10 222/3/10 318/51/10
f 143/52/11 61/53/11 48/25/11 130/54/11
f 223/43/14 213/17/14 215/55/14 225/3/14
f 48/25/1 47/17/1 129/56/1 130/54/1
f 47/57/14 48/25/14 61/53/14 60/58/14
f 319/59/10 223/43/10 225/3/10 320/60/10
f 52/25/1 49/17/1 131/35/1 134/33/1
f 261/61/10 188/43/10 189/3/10 265/44/10 263/62/10
f 71/46/1 10/25/1 9/17/1 65/63/1 69/64/1
f 90/46/1 15/25/1 14/17/1 86/45/1 88/65/1
f 290/66/10 182/43/10 183/3/10 287/67/10
f 3/25/1 2/17/1 108/68/1 100/69/1
f 152/70/13 153/71/13 348/72/13 346/73/13
f 268/74/10 186/43/10 187/3/10 262/75/10 264/76/10 266/77/10 267/78/10 269/79/10
f 70/80/1 66/81/1 8/25/1 7/17/1 80/82/1 81/83/1 76/84/1 75/85/1
f 286/86/10 184/43/10 185/3/10 288/87/10 289/88/10
f 103/89/1 6/25/1 5/17/1 98/90/1 104/91/1
f 85/46/1 13/25/1 12/17/1 83/45/1 84/92/1
f 214/93/11 330/94/11 99/55/11 97/95/11 310/96/11
f 253/5/3 254/5/3 260/5/3 259/97/3 256/98/3 258/5/3
f 232/98/6 227/98/6 230/5/6 235/5/6
f 233/98/7 232/98/7 235/5/7 236/5/7
f 234/98/8 233/98/8 236/5/8 238/5/8
f 208/25/1 204/17/1 298/45/1 300/46/1 207/25/1
f 212/25/1 211/17/1 302/99/1 301/56/1 304/54/1 305/54/1
f 215/55/1 213/17/1 308/56/1 307/35/1 311/95/1
f 147/100/1 260/101/1 254/69/1 149/102/1 148/102/1 150/25/1
f 162/25/1 159/17/1 237/82/1 238/83/1 236/84/1 235/85/1 230/80/1 229/81/1 161/103/1 160/103/1
f 158/25/1 151/17/1 253/90/1 258/91/1 257/89/1 157/103/1 156/103/1
f 320/60/11 225/3/11 215/55/11 311/95/11
f 133/104/3 53/5/3 51/5/3 135/105/3
f 139/106/13 36/107/13 4/22/13 102/108/13
f 102/109/14 4/57/14 350/110/14 351/111/14
f 252/112/13 251/38/13 180/17/13 181/40/13 199/39/13 284/113/13
f 195/43/14 176/94/14 175/17/14 177/25/14 179/94/14 196/3/14
f 353/94/10 110/94/10 371/94/10 370/94/10 79/94/10 77/94/10 112/94/10 347/94/10
f 79/94/8 35/84/8 39/83/8 77/94/8
f 122/7/15 112/94/15 77/94/15 39/83/15 36/107/15 139/106/15 137/94/15 55/94/15 57/94/15 51/5/15 53/5/15 68/94/15 72/94/15 121/7/15 120/8/15
f 288/87/2 257/89/2 258/5/2 256/98/2 234/98/2 238/83/2 237/82/2 268/74/2 269/13/2 274/20/2 291/9/2 289/88/2
f 286/12/3 287/11/3 255/94/3 254/5/3 253/5/3
f 79/94/7 370/94/7 33/85/7 35/84/7
f 29/80/6 33/85/6 370/94/6 371/94/6
f 270/20/5 271/20/5 264/13/5 262/75/5 229/81/5 230/80/5 227/98/5 226/94/5 228/94/5 261/61/5 263/62/5
f 132/27/14 134/33/14 131/35/14 71/46/14 69/64/14 63/6/14 82/16/14 87/16/14 92/16/14 123/16/14
f 321/94/14 320/60/14 311/95/14 310/96/14 97/95/14 89/94/14 134/33/14 132/27/14
f 321/94/14 315/4/14 313/19/14 285/19/14 283/20/14 282/20/14 281/20/14 270/20/14 263/62/14 265/44/14 275/94/14 276/94/14 277/94/14 278/94/14 279/94/14 280/94/14 284/94/14 312/94/14 314/42/14 316/44/14 317/50/14 318/51/14 319/59/14 320/60/14
f 321/1/13 132/27/13 50/26/13 224/2/13
f 62/94/1 145/94/1 89/94/1 331/94/1 368/94/1
f 131/35/11 145/94/11 62/94/11 332/94/11 49/17/11
f 319/59/13 309/94/13 308/56/13 213/17/13 223/43/13
f 318/51/11 222/3/11 212/25/11 305/54/11 306/94/11
f 143/52/10 141/48/10 60/58/10 61/53/10
f 127/46/11 140/94/11 58/94/11 329/94/11 46/25/11
f 367/94/10 58/94/10 140/94/10 138/94/10 56/94/10 328/94/10
f 317/50/13 303/94/13 302/99/13 211/17/13 210/94/13 221/43/13
f 316/44/11 220/3/11 206/94/11 207/25/11 300/46/11
f 126/45/13 45/17/13 327/94/13 56/94/13 138/94/13
f 314/42/13 298/45/13 204/17/13 205/94/13 219/43/13
f 312/94/11 216/3/11 201/41/11 202/94/11 296/94/11 297/94/11
f 312/94/10 284/113/10 199/39/10 216/3/10
f 280/94/11 196/3/11 179/94/11 177/25/11 249/94/11 250/94/11
f 280/94/10 279/94/10 195/43/10 196/3/10
f 202/94/1 203/94/1 180/17/1 251/38/1 296/94/1
f 325/94/1 42/94/1 119/94/1 136/94/1 54/94/1 366/94/1
f 117/29/10 40/28/10 323/94/10 322/94/10 41/32/10 118/31/10
f 248/94/1 178/94/1 177/25/1 175/17/1 246/94/1
f 244/94/10 242/94/10 171/94/10 174/94/10 173/94/10
f 240/94/1 241/94/1 169/94/1 170/94/1 167/94/1
f 193/94/16 194/94/16 174/94/16 171/94/16
f 192/94/14 191/94/14 167/94/14 170/94/14
f 337/94/14 14/17/14 15/25/14 339/94/14 340/94/14 338/94/14
f 338/94/10 340/94/10 38/94/10 116/94/10 115/94/10 37/94/10
f 90/46/11 116/94/11 38/94/11 339/94/11 15/25/11
f 86/45/13 14/17/13 337/94/13 37/94/13 115/94/13
f 85/46/11 114/94/11 34/94/11 361/94/11 13/25/11
f 362/94/10 34/94/10 114/94/10 113/94/10 32/94/10 360/94/10
f 83/45/13 12/17/13 359/94/13 32/94/13 113/94/13
f 71/46/11 111/94/11 31/94/11 335/94/11 10/25/11
f 333/94/14 9/17/14 10/25/14 335/94/14 336/94/14 334/94/14
f 345/94/14 7/17/14 8/25/14 349/94/14 353/94/14 347/94/14
f 334/94/10 336/94/10 31/94/10 111/94/10 109/94/10 30/94/10
f 65/63/13 9/17/13 333/94/13 30/94/13 109/94/13
f 110/94/11 353/94/11 349/94/11 8/25/11 66/81/11
f 279/94/13 247/94/13 246/94/13 175/17/13 176/94/13 195/43/13
f 245/94/13 243/94/13 174/94/13 194/94/13 278/94/13
f 278/94/10 277/94/10 193/94/10 194/94/10
f 193/94/11 171/94/11 242/94/11 277/94/11
f 276/94/11 192/94/11 170/94/11 169/94/11 241/94/11
f 275/94/13 240/94/13 167/94/13 191/94/13
f 265/44/11 189/3/11 166/94/11 165/94/11 231/94/11
f 188/43/14 163/94/14 166/94/14 189/3/14
f 228/94/1 231/94/1 165/94/1 166/94/1 163/94/1
f 262/75/11 187/3/11 162/94/11 161/103/11 229/81/11
f 268/74/13 237/82/13 159/17/13 186/43/13
f 288/87/11 185/3/11 158/94/11 157/103/11 257/89/11
f 112/94/13 80/82/13 7/17/13 345/94/13 347/94/13
f 103/89/11 122/7/11 25/94/11 357/94/11 6/25/11
f 356/94/10 358/94/10 25/94/10 122/7/10 120/8/10 23/94/10
f 286/86/13 253/90/13 151/17/13 184/43/13
f 287/67/11 183/3/11 150/94/11 149/102/11 254/69/11 255/94/11
f 98/90/13 5/17/13 355/94/13 23/94/13 120/8/13
f 100/69/11 121/7/11 21/94/11 341/94/11 3/25/11
f 72/94/17 369/94/17 343/94/17 21/94/17 121/7/17
f 2/17/13 369/94/13 72/94/13 108/68/13
f 290/66/13 260/101/13 147/100/13 182/43/13
f 153/94/10 155/94/10 226/94/10 227/98/10 232/98/10 233/98/10
f 146/94/10 153/94/10 233/98/10 234/98/10 256/98/10 259/97/10
f 67/94/1 68/94/1 53/5/1 51/5/1 57/94/1 363/94/1 344/94/1 342/94/1
f 346/94/18 4/94/18 36/94/18 39/94/18 35/94/18 33/94/18 29/94/18 352/94/18
f 22/94/19 365/94/19 59/94/19 97/95/19 99/55/19 128/94/19
f 188/43/13 261/61/13 228/94/13 163/94/13
f 244/94/16 241/94/16 240/94/16 242/94/16
f 239/94/20 296/94/20 251/38/20 231/94/20 228/94/20 226/94/20
f 284/113/14 280/94/14 250/94/14 252/112/14
f 245/94/16 279/94/16 247/94/16 243/94/16
f 276/94/14 241/94/14 242/94/14 277/94/14
f 275/94/14 265/44/14 231/94/14 240/94/14
f 140/94/21 141/48/21 143/52/21 145/94/21 89/94/21 97/95/21 59/94/21 144/94/21 142/94/21 27/94/21 29/80/21 371/94/21 110/94/21 109/15/21 111/94/21 113/94/21 114/94/21 115/94/21 116/94/21 117/29/21 118/31/21 119/94/21 136/94/21 138/94/21
f 141/48/14 140/94/14 127/46/14 129/49/14
f 143/52/14 130/54/14 131/35/14 145/94/14
f 126/45/14 138/94/14 136/94/14 125/94/14
f 125/37/11 136/94/11 54/94/11 326/94/11 44/25/11
f 96/38/11 119/94/11 42/94/11 324/94/11 20/17/11
f 118/31/14 95/33/14 96/38/14 119/94/14
f 116/94/14 90/46/14 91/30/14 117/29/14
f 297/94/14 298/45/14 314/42/14 312/94/14
f 295/94/14 310/96/14 311/95/14 307/35/14 304/54/14 301/56/14
f 298/45/14 297/94/14 296/94/14 239/94/14 300/46/14
f 142/94/22 144/94/22 27/94/22 29/80/22
f 352/94/23 29/94/23 27/94/23 142/94/23 59/94/23 144/94/23 365/94/23
f 137/94/24 139/106/24 55/94/24 57/94/24 363/94/24
f 363/94/1 4/94/1 137/94/1 55/94/1 139/106/1 36/107/1
f 187/3/14 186/43/14 159/17/14 162/94/14
f 185/3/14 184/43/14 151/17/14 158/94/14
f 183/3/14 182/43/14 147/100/14 150/94/14
f 343/94/14 369/94/14 2/17/14 3/25/14 341/94/14
f 355/94/14 5/17/14 6/25/14 357/94/14 358/94/14 356/94/14
f 290/10/13 108/5/13 68/94/13 67/94/13 146/94/13 259/97/13
f 344/94/14 363/94/14 348/72/14 153/71/14 146/94/14 67/94/14 342/94/14
f 155/94/14 153/94/14 348/94/14 4/94/14 350/94/14
f 155/94/10 214/93/10 310/96/10 295/94/10 239/94/10 226/94/10 154/94/10
f 22/94/14 128/94/14 330/94/14 214/93/14 155/94/14 350/94/14 365/94/14
f 362/94/14 360/94/14 359/94/14 12/17/14 13/25/14 361/94/14
f 40/28/14 16/17/14 19/25/14 41/32/14 322/94/14 323/94/14
f 324/94/16 325/94/16 366/94/16 326/94/16 44/25/16 20/17/16
f 367/94/14 328/94/14 327/94/14 45/17/14 46/25/14 329/94/14
f 219/43/14 205/94/14 204/17/14 208/25/14 206/94/14 220/3/14
f 221/43/14 210/94/14 211/17/14 212/25/14 222/3/14
f 332/94/16 368/94/16 331/94/16 52/25/16 49/17/16
f 50/26/16 43/17/16 17/17/16 11/17/16 1/22/16 190/21/16 197/21/16 198/21/16 200/18/16 217/18/16 218/3/16 224/2/16
f 318/51/14 306/94/14 309/94/14 319/59/14
f 317/50/14 316/44/14 300/46/14 303/94/14
f 114/94/14 85/46/14 86/45/14 115/94/14
f 111/94/14 71/46/14 83/45/14 113/94/14
f 692/1/1 686/4/1 589/3/1 595/2/1
f 474/5/25 493/7/25 483/7/25 451/5/25 452/5/25 449/6/25 472/6/25 475/5/25
f 492/7/26 491/8/26 469/5/26 471/5/26
f 665/9/27 664/9/27 662/9/27 660/13/27 657/12/27 658/11/27 661/10/27 479/5/27 471/5/27 469/5/27 475/5/27 472/6/27 477/6/27 478/6/27
f 437/5/28 481/7/28 480/15/28 436/14/28 440/5/28 434/6/28 435/6/28 441/5/28
f 635/13/29 637/13/29 643/9/29 642/9/29
f 435/6/29 444/6/29 446/5/29 441/5/29
f 644/9/30 643/9/30 637/13/30 638/13/30
f 447/5/30 446/5/30 444/6/30 445/6/30
f 645/9/31 644/9/31 638/13/31 640/13/31
f 452/5/31 447/5/31 445/6/31 449/6/31
f 476/6/32 663/9/32 665/9/32 478/6/32
f 477/16/10 472/16/10 449/16/10 445/16/10 444/16/10 435/16/10 434/16/10 453/16/10 458/16/10 463/16/10 494/16/10 414/17/10 388/17/10 382/17/10 372/17/10 476/16/10 478/16/10
f 588/18/1 684/19/1 656/19/1 571/18/1
f 654/20/1 653/20/1 568/21/1 569/21/1
f 656/19/13 654/20/13 569/21/13 571/18/13
f 372/22/33 561/21/33 663/20/33 476/23/33
f 652/20/1 641/20/1 642/20/1 643/20/1 644/20/1 645/20/1 662/20/1 664/20/1 665/20/1 663/20/1 561/21/1 568/21/1 653/20/1
f 494/24/10 503/27/10 421/26/10 414/25/10
f 686/4/13 684/19/13 588/18/13 589/3/13
f 387/22/11 462/30/11 488/29/11 411/28/11
f 489/31/13 466/33/13 390/25/13 412/32/13
f 464/34/1 462/35/1 387/17/1 390/25/1 466/33/1
f 495/36/1 467/38/1 391/17/1 415/25/1 496/37/1
f 570/39/14 587/3/14 572/41/14 552/40/14
f 685/42/10 687/44/10 591/3/10 590/43/10
f 417/25/1 498/46/1 497/45/1 416/17/1
f 418/22/11 500/49/11 512/48/11 431/47/11
f 688/50/10 689/51/10 593/3/10 592/43/10
f 514/52/13 501/54/13 419/25/13 432/53/13
f 594/43/14 596/3/14 586/55/14 584/17/14
f 419/25/1 501/54/1 500/56/1 418/17/1
f 418/57/14 431/58/14 432/53/14 419/25/14
f 690/59/10 691/60/10 596/3/10 594/43/10
f 423/25/1 505/33/1 502/35/1 420/17/1
f 632/61/10 634/62/10 636/44/10 560/3/10 559/43/10
f 442/46/1 440/64/1 436/63/1 380/17/1 381/25/1
f 461/46/1 459/65/1 457/45/1 385/17/1 386/25/1
f 661/66/10 658/67/10 554/3/10 553/43/10
f 374/25/1 471/69/1 479/68/1 373/17/1
f 523/70/11 717/73/11 719/72/11 524/71/11
f 639/74/10 640/79/10 638/78/10 637/77/10 635/76/10 633/75/10 558/3/10 557/43/10
f 441/80/1 446/85/1 447/84/1 452/83/1 451/82/1 378/17/1 379/25/1 437/81/1
f 657/86/10 660/88/10 659/87/10 556/3/10 555/43/10
f 474/89/1 475/91/1 469/90/1 376/17/1 377/25/1
f 456/46/1 455/92/1 454/45/1 383/17/1 384/25/1
f 585/93/13 681/96/13 468/95/13 470/55/13 701/94/13
f 624/5/26 629/5/26 627/98/26 630/97/26 631/5/26 625/5/26
f 603/98/29 606/5/29 601/5/29 598/98/29
f 604/98/30 607/5/30 606/5/30 603/98/30
f 605/98/31 609/5/31 607/5/31 604/98/31
f 579/25/1 578/25/1 671/46/1 669/45/1 575/17/1
f 583/25/1 676/54/1 675/54/1 672/56/1 673/99/1 582/17/1
f 586/55/1 682/95/1 678/35/1 679/56/1 584/17/1
f 518/100/1 521/25/1 519/102/1 520/102/1 625/69/1 631/101/1
f 533/25/1 531/103/1 532/103/1 600/81/1 601/80/1 606/85/1 607/84/1 609/83/1 608/82/1 530/17/1
f 529/25/1 527/103/1 528/103/1 628/89/1 629/91/1 624/90/1 522/17/1
f 691/60/13 682/95/13 586/55/13 596/3/13
f 504/104/26 506/105/26 422/5/26 424/5/26
f 510/106/11 473/108/11 375/22/11 407/107/11
f 473/109/14 722/111/14 721/110/14 375/57/14
f 623/112/11 655/113/11 570/39/11 552/40/11 551/17/11 622/38/11
f 566/43/14 567/3/14 550/94/14 548/25/14 546/17/14 547/94/14
f 724/94/10 718/94/10 483/94/10 448/94/10 450/94/10 741/94/10 742/94/10 481/94/10
f 450/94/31 448/94/31 410/83/31 406/84/31
f 493/7/34 491/8/34 492/7/34 443/94/34 439/94/34 424/5/34 422/5/34 428/94/34 426/94/34 508/94/34 510/106/34 407/107/34 410/83/34 448/94/34 483/94/34
f 659/87/25 660/88/25 662/9/25 645/20/25 640/13/25 639/74/25 608/82/25 609/83/25 605/98/25 627/98/25 629/5/25 628/89/25
f 657/12/26 624/5/26 625/5/26 626/94/26 658/11/26
f 450/94/30 406/84/30 404/85/30 741/94/30
f 400/80/29 742/94/29 741/94/29 404/85/29
f 641/20/28 634/62/28 632/61/28 599/94/28 597/94/28 598/98/28 601/80/28 600/81/28 633/75/28 635/13/28 642/20/28
f 503/27/14 494/16/14 463/16/14 458/16/14 453/16/14 434/6/14 440/64/14 442/46/14 502/35/14 505/33/14
f 692/94/14 503/27/14 505/33/14 460/94/14 468/95/14 681/96/14 682/95/14 691/60/14
f 692/94/14 691/60/14 690/59/14 689/51/14 688/50/14 687/44/14 685/42/14 683/94/14 655/94/14 651/94/14 650/94/14 649/94/14 648/94/14 647/94/14 646/94/14 636/44/14 634/62/14 641/20/14 652/20/14 653/20/14 654/20/14 656/19/14 684/19/14 686/4/14
f 692/1/11 595/2/11 421/26/11 503/27/11
f 433/94/1 739/94/1 702/94/1 460/94/1 516/94/1
f 502/35/13 420/17/13 703/94/13 433/94/13 516/94/13
f 690/59/11 594/43/11 584/17/11 679/56/11 680/94/11
f 689/51/13 677/94/13 676/54/13 583/25/13 593/3/13
f 514/52/10 432/53/10 431/58/10 512/48/10
f 498/46/13 417/25/13 700/94/13 429/94/13 511/94/13
f 738/94/10 699/94/10 427/94/10 509/94/10 511/94/10 429/94/10
f 688/50/11 592/43/11 581/94/11 582/17/11 673/99/11 674/94/11
f 687/44/13 671/46/13 578/25/13 577/94/13 591/3/13
f 497/45/11 509/94/11 427/94/11 698/94/11 416/17/11
f 685/42/11 590/43/11 576/94/11 575/17/11 669/45/11
f 683/94/13 668/94/13 667/94/13 573/94/13 572/41/13 587/3/13
f 683/94/10 587/3/10 570/39/10 655/113/10
f 651/94/13 621/94/13 620/94/13 548/25/13 550/94/13 567/3/13
f 651/94/10 567/3/10 566/43/10 650/94/10
f 573/94/1 667/94/1 622/38/1 551/17/1 574/94/1
f 696/94/1 737/94/1 425/94/1 507/94/1 490/94/1 413/94/1
f 488/29/10 489/31/10 412/32/10 693/94/10 694/94/10 411/28/10
f 619/94/1 617/94/1 546/17/1 548/25/1 549/94/1
f 615/94/10 544/94/10 545/94/10 542/94/10 613/94/10
f 611/94/1 538/94/1 541/94/1 540/94/1 612/94/1
f 564/94/16 542/94/16 545/94/16 565/94/16
f 563/94/14 541/94/14 538/94/14 562/94/14
f 708/94/14 709/94/14 711/94/14 710/94/14 386/25/14 385/17/14
f 709/94/10 408/94/10 486/94/10 487/94/10 409/94/10 711/94/10
f 461/46/13 386/25/13 710/94/13 409/94/13 487/94/13
f 457/45/11 486/94/11 408/94/11 708/94/11 385/17/11
f 456/46/13 384/25/13 732/94/13 405/94/13 485/94/13
f 733/94/10 731/94/10 403/94/10 484/94/10 485/94/10 405/94/10
f 454/45/11 484/94/11 403/94/11 730/94/11 383/17/11
f 442/46/13 381/25/13 706/94/13 402/94/13 482/94/13
f 704/94/14 705/94/14 707/94/14 706/94/14 381/25/14 380/17/14
f 716/94/14 718/94/14 724/94/14 720/94/14 379/25/14 378/17/14
f 705/94/10 401/94/10 480/94/10 482/94/10 402/94/10 707/94/10
f 436/63/11 480/94/11 401/94/11 704/94/11 380/17/11
f 481/94/13 437/81/13 379/25/13 720/94/13 724/94/13
f 650/94/11 566/43/11 547/94/11 546/17/11 617/94/11 618/94/11
f 616/94/11 649/94/11 565/94/11 545/94/11 614/94/11
f 649/94/10 565/94/10 564/94/10 648/94/10
f 564/94/13 648/94/13 613/94/13 542/94/13
f 647/94/13 612/94/13 540/94/13 541/94/13 563/94/13
f 646/94/11 562/94/11 538/94/11 611/94/11
f 636/44/13 602/94/13 536/94/13 537/94/13 560/3/13
f 559/43/14 560/3/14 537/94/14 534/94/14
f 599/94/1 534/94/1 537/94/1 536/94/1 602/94/1
f 633/75/13 600/81/13 532/103/13 533/94/13 558/3/13
f 639/74/11 557/43/11 530/17/11 608/82/11
f 659/87/13 628/89/13 528/103/13 529/94/13 556/3/13
f 483/94/11 718/94/11 716/94/11 378/17/11 451/82/11
f 474/89/13 377/25/13 728/94/13 396/94/13 493/7/13
f 727/94/10 394/94/10 491/8/10 493/7/10 396/94/10 729/94/10
f 657/86/11 555/43/11 522/17/11 624/90/11
f 658/67/13 626/94/13 625/69/13 520/102/13 521/94/13 554/3/13
f 469/90/11 491/8/11 394/94/11 726/94/11 376/17/11
f 471/69/13 374/25/13 712/94/13 392/94/13 492/7/13
f 443/94/35 492/7/35 392/94/35 714/94/35 740/94/35
f 373/17/11 479/68/11 443/94/11 740/94/11
f 661/66/11 553/43/11 518/100/11 631/101/11
f 524/94/10 604/98/10 603/98/10 598/98/10 597/94/10 526/94/10
f 517/94/10 630/97/10 627/98/10 605/98/10 604/98/10 524/94/10
f 438/94/1 713/94/1 715/94/1 734/94/1 428/94/1 422/5/1 424/5/1 439/94/1
f 717/94/36 723/94/36 400/94/36 404/94/36 406/94/36 410/94/36 407/94/36 375/94/36
f 393/94/19 499/94/19 470/55/19 468/95/19 430/94/19 736/94/19
f 559/43/11 534/94/11 599/94/11 632/61/11
f 615/94/16 613/94/16 611/94/16 612/94/16
f 610/94/37 597/94/37 599/94/37 602/94/37 622/38/37 667/94/37
f 655/113/14 623/112/14 621/94/14 651/94/14
f 616/94/16 614/94/16 618/94/16 650/94/16
f 647/94/14 648/94/14 613/94/14 612/94/14
f 646/94/14 611/94/14 602/94/14 636/44/14
f 511/94/38 509/94/38 507/94/38 490/94/38 489/31/38 488/29/38 487/94/38 486/94/38 485/94/38 484/94/38 482/94/38 480/15/38 481/94/38 742/94/38 400/80/38 398/94/38 513/94/38 515/94/38 430/94/38 468/95/38 460/94/38 516/94/38 514/52/38 512/48/38
f 512/48/14 500/49/14 498/46/14 511/94/14
f 514/52/14 516/94/14 502/35/14 501/54/14
f 497/45/14 496/94/14 507/94/14 509/94/14
f 496/37/13 415/25/13 697/94/13 425/94/13 507/94/13
f 467/38/13 391/17/13 695/94/13 413/94/13 490/94/13
f 489/31/14 490/94/14 467/38/14 466/33/14
f 487/94/14 488/29/14 462/30/14 461/46/14
f 668/94/14 683/94/14 685/42/14 669/45/14
f 666/94/14 672/56/14 675/54/14 678/35/14 682/95/14 681/96/14
f 669/45/14 671/46/14 610/94/14 667/94/14 668/94/14
f 513/94/39 400/80/39 398/94/39 515/94/39
f 723/94/40 736/94/40 515/94/40 430/94/40 513/94/40 398/94/40 400/94/40
f 508/94/41 734/94/41 428/94/41 426/94/41 510/106/41
f 734/94/1 407/107/1 510/106/1 426/94/1 508/94/1 375/94/1
f 558/3/14 533/94/14 530/17/14 557/43/14
f 556/3/14 529/94/14 522/17/14 555/43/14
f 554/3/14 521/94/14 518/100/14 553/43/14
f 714/94/14 712/94/14 374/25/14 373/17/14 740/94/14
f 726/94/14 727/94/14 729/94/14 728/94/14 377/25/14 376/17/14
f 661/10/11 630/97/11 517/94/11 438/94/11 439/94/11 479/5/11
f 715/94/14 713/94/14 438/94/14 517/94/14 524/71/14 719/72/14 734/94/14
f 526/94/14 721/94/14 375/94/14 719/94/14 524/94/14
f 526/94/10 525/94/10 597/94/10 610/94/10 666/94/10 681/96/10 585/93/10
f 393/94/14 736/94/14 721/94/14 526/94/14 585/93/14 701/94/14 499/94/14
f 733/94/14 732/94/14 384/25/14 383/17/14 730/94/14 731/94/14
f 411/28/14 694/94/14 693/94/14 412/32/14 390/25/14 387/17/14
f 695/94/16 391/17/16 415/25/16 697/94/16 737/94/16 696/94/16
f 738/94/14 700/94/14 417/25/14 416/17/14 698/94/14 699/94/14
f 590/43/14 591/3/14 577/94/14 579/25/14 575/17/14 576/94/14
f 592/43/14 593/3/14 583/25/14 582/17/14 581/94/14
f 703/94/16 420/17/16 423/25/16 702/94/16 739/94/16
f 421/26/16 595/2/16 589/3/16 588/18/16 571/18/16 569/21/16 568/21/16 561/21/16 372/22/16 382/17/16 388/17/16 414/17/16
f 689/51/14 690/59/14 680/94/14 677/94/14
f 688/50/14 674/94/14 671/46/14 687/44/14
f 485/94/14 486/94/14 457/45/14 456/46/14
f 482/94/14 484/94/14 454/45/14 442/46/14
l 248 250
l 164 166
l 172 174
l 26 347
l 28 353
l 350 354
l 351 352
l 168 170
l 354 364
l 364 365
l 164 165
l 168 169
l 172 173
l 94 330
l 94 99
l 24 144
l 299 298
l 209 214
l 619 621
l 535 537
l 543 545
l 397 718
l 399 724
l 721 725
l 722 723
l 539 541
l 725 735
l 735 736
l 535 536
l 539 540
l 543 544
l 465 701
l 465 470
l 395 515
l 670 669
l 580 585
