# Blender 4.5.1 LTS
# www.blender.org
mtllib FloorMiddleRoof.mtl
o FloorMiddleRoof
v 2539.311035 416.403107 -5447.159180
v 2539.311035 418.184906 -5447.159180
v 2539.311035 416.403107 -5430.661133
v 2539.311035 418.184906 -5430.661133
v 2442.369141 416.403107 -5447.159180
v 2442.369141 418.184906 -5447.159180
v 2442.369141 416.403107 -5430.661133
v 2442.369141 418.184906 -5430.661133
v 2461.757568 416.403107 -5430.661133
v 2481.145996 416.403107 -5430.661133
v 2500.534180 416.403107 -5430.661133
v 2519.922607 416.403107 -5430.661133
v 2519.922607 418.184906 -5430.661133
v 2461.757568 418.184906 -5430.661133
v 2519.922607 416.403107 -5447.159180
v 2500.534180 416.403107 -5447.159180
v 2481.145996 416.403107 -5447.159180
v 2461.757568 416.403107 -5447.159180
v 2461.757568 418.184906 -5447.159180
v 2519.922607 418.184906 -5447.159180
v 2523.800293 418.184906 -5447.159180
v 2523.800293 418.184906 -5430.661133
v 2539.192139 421.153442 -5430.661133
v 2539.192139 421.153442 -5447.159180
v 2523.919189 423.858368 -5447.159180
v 2523.919189 423.858368 -5430.661133
v 2442.369141 416.403107 -5447.159180
v 2442.369141 418.184906 -5447.159180
v 2442.369141 416.403107 -5430.661133
v 2442.369141 418.184906 -5430.661133
v 2539.311035 416.403107 -5447.159180
v 2539.311035 418.184906 -5447.159180
v 2539.311035 416.403107 -5430.661133
v 2539.311035 418.184906 -5430.661133
v 2519.922607 416.403107 -5430.661133
v 2500.534180 416.403107 -5430.661133
v 2481.145996 416.403015 -5430.661133
v 2461.757568 416.403015 -5430.661133
v 2461.757568 418.184906 -5430.661133
v 2519.922607 418.184906 -5430.661133
v 2461.757568 416.403015 -5447.159180
v 2481.145996 416.403015 -5447.159180
v 2500.534180 416.403107 -5447.159180
v 2519.922607 416.403107 -5447.159180
v 2519.922607 418.184906 -5447.159180
v 2461.757568 418.184906 -5447.159180
v 2457.879883 418.184906 -5447.159180
v 2457.879883 418.184906 -5430.661133
v 2442.488037 421.153442 -5430.661133
v 2442.488037 421.153442 -5447.159180
v 2457.760986 423.858368 -5447.159180
v 2457.760986 423.858368 -5430.661133
vn 1.0000 -0.0000 -0.0000
vn -1.0000 -0.0000 -0.0000
vn -0.0000 -1.0000 -0.0000
vn -0.0000 1.0000 -0.0000
vn -0.0000 -0.0000 1.0000
vn -0.0000 -0.0000 -1.0000
vn 0.1744 0.9847 -0.0000
vn -0.9998 0.0209 -0.0000
vn 0.9992 0.0400 -0.0000
vn -0.1744 0.9847 -0.0000
vn 0.9998 0.0209 -0.0000
vn -0.9992 0.0400 -0.0000
vt 0.375000 0.000000
vt 0.625000 0.000000
vt 0.625000 0.250000
vt 0.375000 0.250000
vt 0.375000 0.500000
vt 0.625000 0.500000
vt 0.625000 0.750000
vt 0.375000 0.750000
vt 0.325000 0.500000
vt 0.325000 0.750000
vt 0.675000 0.500000
vt 0.675000 0.750000
vt 0.625000 0.450000
vt 0.375000 0.450000
vt 0.375000 0.400000
vt 0.375000 0.350000
vt 0.375000 0.300000
vt 0.625000 0.290000
vt 0.625000 0.300000
vt 0.125000 0.500000
vt 0.175000 0.500000
vt 0.175000 0.750000
vt 0.125000 0.750000
vt 0.225000 0.500000
vt 0.225000 0.750000
vt 0.275000 0.500000
vt 0.275000 0.750000
vt 0.625000 0.950000
vt 0.625000 0.960000
vt 0.625000 1.000000
vt 0.375000 1.000000
vt 0.375000 0.950000
vt 0.375000 0.900000
vt 0.375000 0.850000
vt 0.375000 0.800000
vt 0.625000 0.800000
vt 0.875000 0.750000
vt 0.835000 0.750000
vt 0.835000 0.500000
vt 0.875000 0.500000
vt 0.825000 0.750000
vt 0.825000 0.500000
s 0
f 1/1/1 2/2/1 4/3/1 3/4/1
f 7/5/2 8/6/2 6/7/2 5/8/2
f 9/9/3 7/5/3 5/8/3 18/10/3
f 8/6/4 14/11/4 19/12/4 6/7/4
f 14/13/5 8/6/5 7/5/5 9/14/5 10/15/5 11/16/5 12/17/5 3/4/5 4/3/5 22/18/5 13/19/5
f 3/20/3 12/21/3 15/22/3 1/23/3
f 12/21/3 11/24/3 16/25/3 15/22/3
f 11/24/3 10/26/3 17/27/3 16/25/3
f 10/26/3 9/9/3 18/10/3 17/27/3
f 20/28/6 21/29/6 2/30/6 1/31/6 15/32/6 16/33/6 17/34/6 18/35/6 5/8/6 6/7/6 19/36/6
f 24/37/7 25/38/7 26/39/7 23/40/7
f 21/38/8 22/39/8 26/39/8 25/38/8
f 2/2/9 24/2/9 23/3/9 4/3/9
f 21/38/4 20/41/4 13/42/4 22/39/4
f 2/30/6 21/29/6 25/29/6 24/30/6
f 4/3/5 23/3/5 26/18/5 22/18/5
f 14/11/4 13/42/4 20/41/4 19/12/4
f 27/1/2 29/4/2 30/3/2 28/2/2
f 33/5/1 31/8/1 32/7/1 34/6/1
f 35/9/3 44/10/3 31/8/3 33/5/3
f 34/6/4 32/7/4 45/12/4 40/11/4
f 40/13/5 39/19/5 48/18/5 30/3/5 29/4/5 38/17/5 37/16/5 36/15/5 35/14/5 33/5/5 34/6/5
f 29/20/3 27/23/3 41/22/3 38/21/3
f 38/21/3 41/22/3 42/25/3 37/24/3
f 37/24/3 42/25/3 43/27/3 36/26/3
f 36/26/3 43/27/3 44/10/3 35/9/3
f 46/28/6 45/36/6 32/7/6 31/8/6 44/35/6 43/34/6 42/33/6 41/32/6 27/31/6 28/30/6 47/29/6
f 50/37/10 49/40/10 52/39/10 51/38/10
f 47/38/11 51/38/11 52/39/11 48/39/11
f 28/2/12 30/3/12 49/3/12 50/2/12
f 47/38/4 48/39/4 39/42/4 46/41/4
f 28/30/6 50/30/6 51/29/6 47/29/6
f 30/3/5 48/18/5 52/18/5 49/3/5
f 40/11/4 45/12/4 46/41/4 39/42/4
