# Blender 4.5.1 LTS
# www.blender.org
mtllib Roof.mtl
o Roof
v 2376.780029 411.715851 -5425.315918
v 2376.880371 414.519836 -5425.322754
v 2376.756592 411.589081 -5448.591309
v 2376.801270 414.393066 -5448.681641
v 2359.974121 412.843872 -5425.312500
v 2360.074219 415.647888 -5425.319336
v 2359.569336 412.717133 -5446.467285
v 2359.656738 415.521118 -5446.517090
v 2386.017822 412.003693 -5449.622070
v 2385.882324 412.130463 -5425.317871
v 2385.982422 414.934448 -5425.324707
v 2386.057617 414.807678 -5449.714355
v 2394.687012 412.733002 -5450.480957
v 2394.365723 412.859772 -5425.319824
v 2394.466064 415.663757 -5425.326660
v 2394.758545 415.536987 -5450.551270
v 2411.858398 414.558472 -5452.017090
v 2411.869629 414.685242 -5425.323242
v 2411.969971 417.489227 -5425.330078
v 2411.952881 417.362457 -5452.051270
v 2433.206787 418.209412 -5453.242188
v 2433.232178 418.336182 -5425.328125
v 2433.332520 421.140167 -5425.334473
v 2433.304688 421.013397 -5453.265137
v 2449.778809 421.547180 -5453.754395
v 2449.780518 421.673950 -5425.331543
v 2449.880859 424.477936 -5425.337891
v 2449.877441 424.351166 -5453.773926
v 2461.838379 423.178528 -5453.577148
v 2461.858398 423.305298 -5425.333984
v 2461.958740 426.109283 -5425.340820
v 2461.938232 425.982513 -5453.587891
v 2476.826172 424.467590 -5453.908691
v 2476.840576 424.594360 -5425.336914
v 2476.940918 427.398346 -5425.343750
v 2476.926514 427.271576 -5453.915527
v 2490.871094 424.877075 -5453.851074
v 2490.856445 425.003845 -5425.279297
v 2490.756348 427.807800 -5425.286133
v 2490.770752 427.681030 -5453.857422
v 2605.694092 411.616211 -5425.255371
v 2605.593750 414.420197 -5425.261719
v 2605.717529 411.489441 -5448.530762
v 2605.672607 414.293427 -5448.620605
v 2622.500000 412.744232 -5425.251953
v 2622.399658 415.548218 -5425.258301
v 2622.904785 412.617462 -5446.406250
v 2622.817383 415.421448 -5446.456543
v 2596.456299 411.904022 -5449.561035
v 2596.591797 412.030792 -5425.257324
v 2596.491455 414.834778 -5425.263672
v 2596.416504 414.708008 -5449.653809
v 2587.787109 412.633331 -5450.419922
v 2588.108398 412.760101 -5425.258789
v 2588.008057 415.564087 -5425.265625
v 2587.715576 415.437317 -5450.490234
v 2570.615479 414.458832 -5451.956055
v 2570.604492 414.585602 -5425.262695
v 2570.504150 417.389587 -5425.269043
v 2570.520996 417.262817 -5451.990723
v 2549.267090 418.109741 -5453.181152
v 2549.241943 418.236511 -5425.267090
v 2549.141602 421.040497 -5425.273926
v 2549.169434 420.913727 -5453.204590
v 2532.695312 421.447540 -5453.693359
v 2532.693604 421.574310 -5425.270508
v 2532.593262 424.378296 -5425.277344
v 2532.596680 424.251526 -5453.713379
v 2520.635742 423.078888 -5453.516113
v 2520.615723 423.205658 -5425.272949
v 2520.515381 426.009644 -5425.279785
v 2520.535889 425.882874 -5453.527344
v 2505.647949 424.367950 -5453.847656
v 2505.633301 424.494720 -5425.276367
v 2505.532959 427.298706 -5425.282715
v 2505.547607 427.171936 -5453.854492
v 2490.871094 424.877045 -5453.851074
v 2490.856445 425.003815 -5425.279297
v 2490.756348 427.807800 -5425.286133
v 2490.770752 427.681030 -5453.857422
vn -0.1094 -0.0307 -0.9935
vn -0.1253 -0.0218 -0.9919
vn -0.9993 0.0336 0.0192
vn 0.0004 0.0024 1.0000
vn -0.0658 -0.9978 0.0063
vn 0.0659 0.9978 -0.0064
vn -0.0849 0.9964 -0.0057
vn 0.0001 0.0024 1.0000
vn -0.0454 0.9990 -0.0053
vn 0.0454 -0.9990 0.0054
vn -0.0863 -0.0161 -0.9961
vn 0.0850 -0.9964 0.0059
vn -0.0949 -0.0270 -0.9951
vn -0.0000 0.0024 1.0000
vn -0.1686 0.9857 -0.0044
vn -0.1049 0.9945 -0.0054
vn 0.1050 -0.9945 0.0055
vn -0.1976 0.9803 -0.0043
vn 0.1686 -0.9857 0.0045
vn -0.0556 -0.0083 -0.9984
vn -0.0002 0.0024 1.0000
vn 0.0159 -0.0060 -0.9999
vn 0.1976 -0.9803 0.0043
vn -0.0295 -0.0066 -0.9995
vn -0.0003 0.0024 1.0000
vn -0.0858 0.9963 -0.0044
vn -0.0001 0.0024 1.0000
vn -0.1339 0.9910 -0.0044
vn 0.1339 -0.9910 0.0044
vn 0.0042 -0.0023 -1.0000
vn 0.0858 -0.9963 0.0044
vn -0.0218 -0.0024 -0.9998
vn -0.0042 0.0025 1.0000
vn -0.0296 0.9996 -0.0044
vn 0.0292 -0.9996 0.0044
vn -0.1094 0.0307 0.9935
vn -0.1253 0.0218 0.9919
vn -0.9993 -0.0336 -0.0192
vn 0.0004 -0.0024 -1.0000
vn -0.0658 0.9978 -0.0063
vn 0.0659 -0.9978 0.0064
vn -0.0849 -0.9964 0.0057
vn 0.0001 -0.0024 -1.0000
vn -0.0454 -0.9990 0.0053
vn 0.0454 0.9990 -0.0054
vn -0.0863 0.0161 0.9961
vn 0.0850 0.9964 -0.0059
vn -0.0949 0.0270 0.9951
vn -0.0000 -0.0024 -1.0000
vn -0.1686 -0.9857 0.0044
vn -0.1049 -0.9945 0.0054
vn 0.1050 0.9945 -0.0055
vn -0.1976 -0.9803 0.0043
vn 0.1686 0.9857 -0.0045
vn -0.0556 0.0083 0.9984
vn -0.0002 -0.0024 -1.0000
vn 0.0159 0.0060 0.9999
vn 0.1976 0.9803 -0.0043
vn -0.0295 0.0066 0.9995
vn -0.0003 -0.0024 -1.0000
vn -0.0858 -0.9963 0.0044
vn -0.0001 -0.0024 -1.0000
vn -0.1339 -0.9910 0.0044
vn 0.1339 0.9910 -0.0044
vn 0.0858 0.9963 -0.0044
vn -0.0218 0.0024 0.9998
vn -0.0344 -0.9994 0.0044
vn 0.0344 0.9994 -0.0044
vt 0.625000 0.250000
vt 0.375000 0.250000
vt 0.625000 0.500000
vt 0.375000 0.500000
vt 0.625000 0.750000
vt 0.375000 0.750000
vt 0.625000 1.000000
vt 0.375000 1.000000
vt 0.125000 0.500000
vt 0.125000 0.750000
vt 0.875000 0.500000
vt 0.875000 0.750000
s 0
f 4/1/1 12/1/1 9/2/1 3/2/1
f 3/2/2 7/4/2 8/3/2 4/1/2
f 7/4/3 5/6/3 6/5/3 8/3/3
f 5/6/4 1/8/4 2/7/4 6/5/4
f 3/9/5 1/10/5 5/6/5 7/4/5
f 8/3/6 6/5/6 2/12/6 4/11/6
f 11/12/7 15/12/7 16/11/7 12/11/7
f 1/8/8 10/8/8 11/7/8 2/7/8
f 2/12/9 11/12/9 12/11/9 4/11/9
f 3/9/10 9/9/10 10/10/10 1/10/10
f 16/1/11 20/1/11 17/2/11 13/2/11
f 9/9/12 13/9/12 14/10/12 10/10/12
f 12/1/13 16/1/13 13/2/13 9/2/13
f 10/8/14 14/8/14 15/7/14 11/7/14
f 19/12/15 23/12/15 24/11/15 20/11/15
f 14/8/14 18/8/14 19/7/14 15/7/14
f 15/12/16 19/12/16 20/11/16 16/11/16
f 13/9/17 17/9/17 18/10/17 14/10/17
f 23/12/18 27/12/18 28/11/18 24/11/18
f 17/9/19 21/9/19 22/10/19 18/10/19
f 20/1/20 24/1/20 21/2/20 17/2/20
f 18/8/21 22/8/21 23/7/21 19/7/21
f 28/1/22 32/1/22 29/2/22 25/2/22
f 21/9/23 25/9/23 26/10/23 22/10/23
f 24/1/24 28/1/24 25/2/24 21/2/24
f 22/8/25 26/8/25 27/7/25 23/7/25
f 31/12/26 35/12/26 36/11/26 32/11/26
f 26/8/27 30/8/27 31/7/27 27/7/27
f 27/12/28 31/12/28 32/11/28 28/11/28
f 25/9/29 29/9/29 30/10/29 26/10/29
f 36/1/30 40/1/30 37/2/30 33/2/30
f 29/9/31 33/9/31 34/10/31 30/10/31
f 32/1/32 36/1/32 33/2/32 29/2/32
f 30/8/14 34/8/14 35/7/14 31/7/14
f 34/8/33 38/8/33 39/7/33 35/7/33
f 35/12/34 39/12/34 40/11/34 36/11/34
f 33/9/35 37/9/35 38/10/35 34/10/35
f 44/1/36 52/1/36 49/2/36 43/2/36
f 43/2/37 47/4/37 48/3/37 44/1/37
f 47/4/38 45/6/38 46/5/38 48/3/38
f 45/6/39 41/8/39 42/7/39 46/5/39
f 43/9/40 41/10/40 45/6/40 47/4/40
f 48/3/41 46/5/41 42/12/41 44/11/41
f 51/12/42 55/12/42 56/11/42 52/11/42
f 41/8/43 50/8/43 51/7/43 42/7/43
f 42/12/44 51/12/44 52/11/44 44/11/44
f 43/9/45 49/9/45 50/10/45 41/10/45
f 56/1/46 60/1/46 57/2/46 53/2/46
f 49/9/47 53/9/47 54/10/47 50/10/47
f 52/1/48 56/1/48 53/2/48 49/2/48
f 50/8/49 54/8/49 55/7/49 51/7/49
f 59/12/50 63/12/50 64/11/50 60/11/50
f 54/8/49 58/8/49 59/7/49 55/7/49
f 55/12/51 59/12/51 60/11/51 56/11/51
f 53/9/52 57/9/52 58/10/52 54/10/52
f 63/12/53 67/12/53 68/11/53 64/11/53
f 57/9/54 61/9/54 62/10/54 58/10/54
f 60/1/55 64/1/55 61/2/55 57/2/55
f 58/8/56 62/8/56 63/7/56 59/7/56
f 68/1/57 72/1/57 69/2/57 65/2/57
f 61/9/58 65/9/58 66/10/58 62/10/58
f 64/1/59 68/1/59 65/2/59 61/2/59
f 62/8/60 66/8/60 67/7/60 63/7/60
f 71/12/61 75/12/61 76/11/61 72/11/61
f 66/8/62 70/8/62 71/7/62 67/7/62
f 67/12/63 71/12/63 72/11/63 68/11/63
f 65/9/64 69/9/64 70/10/64 66/10/64
f 76/1/27 80/1/27 77/2/27 73/2/27
f 69/9/65 73/9/65 74/10/65 70/10/65
f 72/1/66 76/1/66 73/2/66 69/2/66
f 70/8/49 74/8/49 75/7/49 71/7/49
f 74/8/43 78/8/43 79/7/43 75/7/43
f 75/12/67 79/12/67 80/11/67 76/11/67
f 73/9/68 77/9/68 78/10/68 74/10/68
